<?xml version="1.0" encoding="UTF-8"?>
<svg version="1.1" xmlns="http://www.w3.org/2000/svg" width="300" height="292">
<path d="M0 0 C99 0 198 0 300 0 C300 96.36 300 192.72 300 292 C201 292 102 292 0 292 C0 195.64 0 99.28 0 0 Z " fill="#020202" transform="translate(0,0)"/>
<path d="M0 0 C12.29686667 0.21919548 27.53278197 7.51948331 37.07421875 15.12890625 C39.62713629 16.89545873 41.66279943 16.32832302 44.61328125 15.83203125 C46.97324354 15.35514768 49.33041621 14.86590298 51.6875 14.375 C61.58616739 12.35401381 71.55095063 12.18132886 81.625 12.1875 C83.47399902 12.18762085 83.47399902 12.18762085 85.36035156 12.18774414 C94.66949779 12.24606443 103.67223481 12.81280026 112.79760742 14.79199219 C118.22728688 15.79159845 120.92494986 14.79936272 125.6875 11.75 C126.9000483 11.00147706 128.11492419 10.25671229 129.33203125 9.515625 C129.92709473 9.14888672 130.5221582 8.78214844 131.13525391 8.40429688 C135.1941878 6.0028844 139.53030554 4.18773569 143.875 2.375 C144.865 1.941875 145.855 1.50875 146.875 1.0625 C151.51701832 -0.00129586 156.13458092 0.22317163 160.875 0.375 C163.96625139 7.40057133 166.1474198 13.17193844 166.0625 21 C166.0615332 22.0511499 166.0615332 22.0511499 166.06054688 23.12353516 C166.02517162 27.43440333 165.56512764 31.48777167 164.875 35.75 C164.52814134 39.27560446 164.55895975 40.84142555 166.37890625 43.9140625 C167.77627074 45.58453618 169.21040675 47.22479276 170.67578125 48.8359375 C183.11284528 63.19489242 184.10716831 83.37165185 182.875 101.375 C181.28230615 118.77702836 176.14958141 136.3049971 163.046875 148.5703125 C148.69986128 160.49175195 127.37303181 166.38398355 108.875 165.375 C108.875 166.035 108.875 166.695 108.875 167.375 C109.63425781 167.61605469 110.39351562 167.85710937 111.17578125 168.10546875 C114.28938308 169.56989797 115.25471647 170.80377025 117.0625 173.6875 C117.55105469 174.44675781 118.03960937 175.20601562 118.54296875 175.98828125 C123.06998419 184.09973706 123.02521863 192.08905039 123.0859375 201.16015625 C123.11399028 203.48763743 123.14265461 205.81511131 123.171875 208.14257812 C123.21321638 211.79858313 123.25012167 215.45444929 123.27636719 219.1105957 C123.30393998 222.64823191 123.34979107 226.18525551 123.3984375 229.72265625 C123.4033168 231.3618679 123.4033168 231.3618679 123.40829468 233.03419495 C123.42486115 234.05553024 123.44142761 235.07686554 123.45849609 236.12915039 C123.46658295 237.02372452 123.4746698 237.91829865 123.48300171 238.83998108 C124.20123097 243.48470735 126.61270858 246.11270858 129.875 249.375 C64.535 249.375 -0.805 249.375 -68.125 249.375 C-68.125 205.155 -68.125 160.935 -68.125 115.375 C-67.795 115.375 -67.465 115.375 -67.125 115.375 C-67.01542969 116.50035156 -66.90585938 117.62570313 -66.79296875 118.78515625 C-63.7156353 149.18841054 -54.39053007 177.87490649 -34.125 201.375 C-33.37476563 202.2515625 -32.62453125 203.128125 -31.8515625 204.03125 C-29.65593764 206.52732879 -27.40746812 208.95826905 -25.125 211.375 C-24.37992188 212.18453125 -23.63484375 212.9940625 -22.8671875 213.828125 C-9.07101101 228.30728052 12.47796046 243.89559209 32.375 247.875 C35.5679663 247.23640674 36.81860652 245.67235376 38.80307007 243.1762085 C40.61182795 240.13687732 40.60156886 237.00257703 40.58203125 233.5703125 C40.60471321 232.4843428 40.60471321 232.4843428 40.62785339 231.37643433 C40.67054044 229.08396805 40.67954885 226.79282314 40.6875 224.5 C40.71065946 222.93746534 40.73602782 221.37496176 40.76367188 219.8125 C40.82633504 215.9998842 40.85881866 212.18808489 40.875 208.375 C40.1423291 208.53508545 39.4096582 208.6951709 38.65478516 208.86010742 C26.6767018 211.07877753 12.97664355 210.74287279 2.65234375 203.90234375 C-4.23853535 198.45404121 -7.87360861 191.04697497 -11.5625 183.25 C-15.61549485 175.01493404 -21.63553356 169.51063413 -29.125 164.375 C-28.795 163.055 -28.465 161.735 -28.125 160.375 C-21.69454904 159.84306931 -16.51999488 159.69356926 -11.15625 163.5625 C-6.02365557 168.14235349 -1.54561115 173.39502472 2.78515625 178.7265625 C6.57442709 183.335835 9.91782758 186.97643649 15.875 188.375 C24.74317498 189.05515501 33.28921558 188.87268274 41.875 186.375 C42.08125 185.240625 42.2875 184.10625 42.5 182.9375 C43.98009015 176.92061179 47.52009019 171.72990981 51.875 167.375 C51.15022461 167.21942627 50.42544922 167.06385254 49.67871094 166.90356445 C46.32481169 166.17660172 42.97501476 165.43215002 39.625 164.6875 C38.48546875 164.44322266 37.3459375 164.19894531 36.171875 163.94726562 C17.86420217 159.83844132 0.48904204 151.95328976 -10.3828125 136.078125 C-21.86805512 117.57123451 -25.77299838 91.7216119 -21.4375 70.29296875 C-19.28435639 62.73005182 -15.6719224 55.59149448 -10.59375 49.5546875 C-7.84165588 46.30058376 -7.84165588 46.30058376 -7.13134766 42.21044922 C-7.302229 41.01959717 -7.302229 41.01959717 -7.4765625 39.8046875 C-9.06331384 26.97503705 -9.95224561 13.26351716 -4.125 1.375 C-3.125 0.375 -3.125 0.375 0 0 Z " fill="#FDFDFD" transform="translate(68.125,42.625)"/>
<path d="M0 0 C46.53 0 93.06 0 141 0 C141 0.33 141 0.66 141 1 C140.26587891 1.09498779 139.53175781 1.18997559 138.77539062 1.2878418 C124.77119335 3.13482618 111.25018072 4.96554905 98 10 C96.46472656 10.56847656 96.46472656 10.56847656 94.8984375 11.1484375 C75.76685148 18.6698262 59.70910945 29.80304617 45 44 C44.13632812 44.80050781 43.27265625 45.60101563 42.3828125 46.42578125 C18.44088744 69.21163205 4.25244119 103.47558814 1 136 C0.67 136 0.34 136 0 136 C0 91.12 0 46.24 0 0 Z " fill="#FDFDFD" transform="translate(0,0)"/>
<path d="M0 0 C46.86 0 93.72 0 142 0 C142 44.88 142 89.76 142 136 C141.67 136 141.34 136 141 136 C140.82984375 134.88625 140.6596875 133.7725 140.484375 132.625 C136.0705795 104.47306633 127.41422435 77.68242086 108 56 C107.23558594 55.12859375 106.47117187 54.2571875 105.68359375 53.359375 C101.91515674 49.11289903 98.11774082 44.91185378 94 41 C93.10474609 40.14728516 93.10474609 40.14728516 92.19140625 39.27734375 C66.72073131 15.76954651 34.39809563 3.23561097 0 1 C0 0.67 0 0.34 0 0 Z " fill="#FCFCFC" transform="translate(158,0)"/>
<path d="M0 0 C0.33 0 0.66 0 1 0 C1 42.57 1 85.14 1 129 C-32.33 129 -65.66 129 -100 129 C-97.67860021 127.45240014 -95.82249946 126.42153831 -93.296875 125.37109375 C-76.17501431 118.10514199 -59.79810596 109.16278235 -46.72265625 95.66796875 C-44 93 -44 93 -42 93 C-41.7628125 92.43925781 -41.525625 91.87851563 -41.28125 91.30078125 C-39.70913626 88.47768676 -37.75138484 86.50656888 -35.5 84.1875 C-14.02471078 61.10782511 -4.32343227 30.62007327 0 0 Z " fill="#FCFCFC" transform="translate(299,163)"/>
<path d="M0 0 C1.98 0.66 3.96 1.32 6 2 C5.01 2.495 5.01 2.495 4 3 C4 3.66 4 4.32 4 5 C3.01 5.33 2.02 5.66 1 6 C-0.0625 4.125 -0.0625 4.125 -1 2 C-0.67 1.34 -0.34 0.68 0 0 Z " fill="#EBEBEB" transform="translate(104,58)"/>
</svg>
