<?xml version="1.0" encoding="UTF-8"?>
<svg version="1.1" xmlns="http://www.w3.org/2000/svg" width="736" height="736">
<path d="M0 0 C242.88 0 485.76 0 736 0 C736 242.88 736 485.76 736 736 C493.12 736 250.24 736 0 736 C0 493.12 0 250.24 0 0 Z " fill="#FEFEFE" transform="translate(0,0)"/>
<path d="M0 0 C2.58898426 -0.00067728 5.17796846 -0.00165079 7.76695251 -0.00289917 C13.14924802 -0.00435809 18.53152526 -0.00238291 23.91381836 0.00244141 C29.35197857 0.00726131 34.7901113 0.00726677 40.22827148 0.00244141 C91.99966897 -0.04214122 91.99966897 -0.04214122 113.59765625 0.54296875 C114.62385165 0.56848879 114.62385165 0.56848879 115.67077827 0.59452438 C144.94947266 1.35794537 173.60828454 9.61551096 196.02734375 29.1328125 C196.02734375 29.7928125 196.02734375 30.4528125 196.02734375 31.1328125 C196.59839844 31.36097656 197.16945313 31.58914062 197.7578125 31.82421875 C213.91281575 41.13906572 222.03352109 66.44096514 226.7734375 83.3671875 C232.95681966 106.40984218 231.18295431 131.49989461 231.16166925 155.17770863 C231.15908241 158.9745725 231.16150015 162.77143434 231.16305542 166.56829834 C231.16485821 172.93192996 231.16252018 179.29554986 231.15771484 185.65917969 C231.15226649 192.95743441 231.15404675 200.2556612 231.15954125 207.55391526 C231.16411561 213.8901182 231.16470228 220.22631286 231.16210258 226.56251693 C231.16056456 230.31646541 231.16027657 234.07040087 231.16363907 237.82434845 C231.22852993 321.74433035 231.22852993 321.74433035 203.02734375 354.1328125 C201.09879262 356.04278414 199.1373149 357.79389052 197.02734375 359.5 C194.98714829 361.11768163 194.98714829 361.11768163 193.08984375 363.015625 C183.64535963 372.13813807 171.50139918 378.28346789 159.02734375 382.1328125 C158.04894531 382.46796875 157.07054687 382.803125 156.0625 383.1484375 C141.96372878 387.81898223 127.79702352 389.58816238 113.00390625 389.8125 C111.43208925 389.84542238 109.86028167 389.87879661 108.28848267 389.91256714 C85.24518882 390.36484973 62.19085316 390.2808529 39.14434814 390.25976562 C34.15667949 390.25716233 29.16902849 390.26203316 24.18136215 390.26660538 C-19.56497197 390.30104519 -19.56497197 390.30104519 -41.05859375 389.75 C-41.73688862 389.73485477 -42.41518349 389.71970955 -43.11403275 389.70410538 C-55.39634242 389.41613918 -67.88526404 388.55551878 -79.66015625 384.8203125 C-80.72194092 384.4943811 -80.72194092 384.4943811 -81.80517578 384.16186523 C-88.03275226 382.20472767 -94.06198737 379.91183437 -99.97265625 377.1328125 C-100.85953125 376.71644531 -101.74640625 376.30007813 -102.66015625 375.87109375 C-111.47740372 371.39839118 -121.52843376 364.75080409 -127.97265625 357.1328125 C-127.97265625 356.4728125 -127.97265625 355.8128125 -127.97265625 355.1328125 C-128.96265625 354.8028125 -129.95265625 354.4728125 -130.97265625 354.1328125 C-132.65049866 352.1241699 -134.16557572 350.14660877 -135.66015625 348.0078125 C-136.10004883 347.37891113 -136.53994141 346.75000977 -136.99316406 346.10205078 C-158.7217517 314.42041884 -159.14053448 278.48239561 -159.10698175 241.3289187 C-159.10440767 237.57272796 -159.10681011 233.81653937 -159.10836792 230.06034851 C-159.11017805 223.74392249 -159.10781694 217.42750822 -159.10302734 211.11108398 C-159.09761777 203.89553953 -159.0993279 196.68002348 -159.10485375 189.46447974 C-159.10945533 183.19620157 -159.11000079 176.92793174 -159.10741508 170.65965241 C-159.10588636 166.94887626 -159.10556062 163.23811324 -159.10895157 159.52733803 C-159.12068032 144.55847116 -159.00978741 129.59981029 -158.54248047 114.63745117 C-158.48754016 112.79091304 -158.48754016 112.79091304 -158.43148994 110.90707111 C-158.12114126 102.04780331 -157.22213206 93.73541036 -154.97265625 85.1328125 C-154.80781738 84.46604492 -154.64297852 83.79927734 -154.47314453 83.11230469 C-150.3576228 66.64260346 -143.7413492 52.28038832 -132.97265625 39.1328125 C-132.43253906 38.36582031 -131.89242187 37.59882813 -131.3359375 36.80859375 C-130.66111328 35.97908203 -130.66111328 35.97908203 -129.97265625 35.1328125 C-129.31265625 35.1328125 -128.65265625 35.1328125 -127.97265625 35.1328125 C-127.31265625 33.8128125 -126.65265625 32.4928125 -125.97265625 31.1328125 C-125.31265625 31.1328125 -124.65265625 31.1328125 -123.97265625 31.1328125 C-123.47765625 29.6478125 -123.47765625 29.6478125 -122.97265625 28.1328125 C-120.78071338 26.27010598 -118.61040855 24.5636279 -116.28515625 22.8828125 C-115.61033203 22.39409668 -114.93550781 21.90538086 -114.24023438 21.40185547 C-93.15283144 6.48217333 -68.56778955 1.43252721 -43.15844727 0.57861328 C-41.31987955 0.51544765 -41.31987955 0.51544765 -39.44416904 0.45100594 C-26.29579428 0.03176985 -13.15387597 -0.0124718 0 0 Z " fill="#FDFDFD" transform="translate(331.97265625,172.8671875)"/>
<path d="M0 0 C2.58898426 -0.00067728 5.17796846 -0.00165079 7.76695251 -0.00289917 C13.14924802 -0.00435809 18.53152526 -0.00238291 23.91381836 0.00244141 C29.35197857 0.00726131 34.7901113 0.00726677 40.22827148 0.00244141 C91.99966897 -0.04214122 91.99966897 -0.04214122 113.59765625 0.54296875 C114.62385165 0.56848879 114.62385165 0.56848879 115.67077827 0.59452438 C144.94947266 1.35794537 173.60828454 9.61551096 196.02734375 29.1328125 C196.02734375 29.7928125 196.02734375 30.4528125 196.02734375 31.1328125 C196.59839844 31.36097656 197.16945313 31.58914062 197.7578125 31.82421875 C213.91281575 41.13906572 222.03352109 66.44096514 226.7734375 83.3671875 C232.95681966 106.40984218 231.18295431 131.49989461 231.16166925 155.17770863 C231.15908241 158.9745725 231.16150015 162.77143434 231.16305542 166.56829834 C231.16485821 172.93192996 231.16252018 179.29554986 231.15771484 185.65917969 C231.15226649 192.95743441 231.15404675 200.2556612 231.15954125 207.55391526 C231.16411561 213.8901182 231.16470228 220.22631286 231.16210258 226.56251693 C231.16056456 230.31646541 231.16027657 234.07040087 231.16363907 237.82434845 C231.22852993 321.74433035 231.22852993 321.74433035 203.02734375 354.1328125 C201.09879262 356.04278414 199.1373149 357.79389052 197.02734375 359.5 C194.98714829 361.11768163 194.98714829 361.11768163 193.08984375 363.015625 C183.64535963 372.13813807 171.50139918 378.28346789 159.02734375 382.1328125 C158.04894531 382.46796875 157.07054687 382.803125 156.0625 383.1484375 C141.96372878 387.81898223 127.79702352 389.58816238 113.00390625 389.8125 C111.43208925 389.84542238 109.86028167 389.87879661 108.28848267 389.91256714 C85.24518882 390.36484973 62.19085316 390.2808529 39.14434814 390.25976562 C34.15667949 390.25716233 29.16902849 390.26203316 24.18136215 390.26660538 C-19.56497197 390.30104519 -19.56497197 390.30104519 -41.05859375 389.75 C-41.73688862 389.73485477 -42.41518349 389.71970955 -43.11403275 389.70410538 C-55.39634242 389.41613918 -67.88526404 388.55551878 -79.66015625 384.8203125 C-80.72194092 384.4943811 -80.72194092 384.4943811 -81.80517578 384.16186523 C-88.03275226 382.20472767 -94.06198737 379.91183437 -99.97265625 377.1328125 C-100.85953125 376.71644531 -101.74640625 376.30007813 -102.66015625 375.87109375 C-111.47740372 371.39839118 -121.52843376 364.75080409 -127.97265625 357.1328125 C-127.97265625 356.4728125 -127.97265625 355.8128125 -127.97265625 355.1328125 C-128.96265625 354.8028125 -129.95265625 354.4728125 -130.97265625 354.1328125 C-132.65049866 352.1241699 -134.16557572 350.14660877 -135.66015625 348.0078125 C-136.10004883 347.37891113 -136.53994141 346.75000977 -136.99316406 346.10205078 C-158.7217517 314.42041884 -159.14053448 278.48239561 -159.10698175 241.3289187 C-159.10440767 237.57272796 -159.10681011 233.81653937 -159.10836792 230.06034851 C-159.11017805 223.74392249 -159.10781694 217.42750822 -159.10302734 211.11108398 C-159.09761777 203.89553953 -159.0993279 196.68002348 -159.10485375 189.46447974 C-159.10945533 183.19620157 -159.11000079 176.92793174 -159.10741508 170.65965241 C-159.10588636 166.94887626 -159.10556062 163.23811324 -159.10895157 159.52733803 C-159.12068032 144.55847116 -159.00978741 129.59981029 -158.54248047 114.63745117 C-158.48754016 112.79091304 -158.48754016 112.79091304 -158.43148994 110.90707111 C-158.12114126 102.04780331 -157.22213206 93.73541036 -154.97265625 85.1328125 C-154.80781738 84.46604492 -154.64297852 83.79927734 -154.47314453 83.11230469 C-150.3576228 66.64260346 -143.7413492 52.28038832 -132.97265625 39.1328125 C-132.43253906 38.36582031 -131.89242187 37.59882813 -131.3359375 36.80859375 C-130.66111328 35.97908203 -130.66111328 35.97908203 -129.97265625 35.1328125 C-129.31265625 35.1328125 -128.65265625 35.1328125 -127.97265625 35.1328125 C-127.31265625 33.8128125 -126.65265625 32.4928125 -125.97265625 31.1328125 C-125.31265625 31.1328125 -124.65265625 31.1328125 -123.97265625 31.1328125 C-123.47765625 29.6478125 -123.47765625 29.6478125 -122.97265625 28.1328125 C-120.78071338 26.27010598 -118.61040855 24.5636279 -116.28515625 22.8828125 C-115.61033203 22.39409668 -114.93550781 21.90538086 -114.24023438 21.40185547 C-93.15283144 6.48217333 -68.56778955 1.43252721 -43.15844727 0.57861328 C-41.31987955 0.51544765 -41.31987955 0.51544765 -39.44416904 0.45100594 C-26.29579428 0.03176985 -13.15387597 -0.0124718 0 0 Z M-54.70517921 36.87189484 C-56.27248797 37.05224442 -57.84126861 37.22008392 -59.41101646 37.37779999 C-60.59427482 37.49820019 -60.59427482 37.49820019 -61.80143738 37.62103271 C-62.50098132 37.69008694 -63.20052526 37.75914116 -63.92126751 37.83028793 C-67.59200722 38.37162314 -71.00347197 39.60118268 -74.47265625 40.8828125 C-75.5855603 41.28814209 -75.5855603 41.28814209 -76.72094727 41.70166016 C-95.17258849 48.58330618 -108.00213879 60.97210122 -116.21484375 78.81640625 C-126.08739553 101.92739039 -124.29173392 129.64052897 -124.27423882 154.21672034 C-124.27314859 157.26474102 -124.27810367 160.31274183 -124.28284425 163.36075813 C-124.29383937 170.5734478 -124.29443436 177.78608536 -124.28833008 184.9987793 C-124.28230279 192.3497468 -124.29459299 199.7005223 -124.31590015 207.05145711 C-124.33372489 213.44467435 -124.33948514 219.83783166 -124.3362624 226.23107272 C-124.33448176 230.01328552 -124.33675124 233.79536147 -124.35097694 237.57755089 C-125.07465306 289.69791916 -125.07465306 289.69791916 -100.97265625 334.1328125 C-93.96646129 340.28716135 -86.66947734 344.81153712 -77.97265625 348.1328125 C-77.05097656 348.50148438 -76.12929687 348.87015625 -75.1796875 349.25 C-58.19725894 355.52960246 -38.61914685 355.27762641 -20.71069336 355.29394531 C-19.35815807 355.29859309 -18.00562404 355.30362023 -16.65309143 355.30899048 C-13.02398233 355.32193661 -9.39489156 355.32852516 -5.76576304 355.33300114 C-3.47977578 355.33596371 -1.19379317 355.3400741 1.0921917 355.34450531 C8.29820192 355.35813948 15.50420106 355.36782343 22.71022326 355.3717072 C30.92738919 355.37616454 39.14438685 355.39362086 47.36150175 355.4227078 C53.7783591 355.44460431 60.19517014 355.45442624 66.6120643 355.45574832 C70.41347598 355.45677757 74.21472883 355.46226718 78.01609993 355.48056793 C93.2523122 355.54957152 108.33577395 355.26713608 123.50952148 353.79199219 C124.72995431 353.67451252 125.95038713 353.55703285 127.20780277 353.43599319 C136.80772596 352.39447405 145.26553682 350.13675451 154.02734375 346.1328125 C154.9915625 345.71902344 155.95578125 345.30523438 156.94921875 344.87890625 C173.0345655 337.49426979 182.5160679 324.36737286 189.17578125 308.375 C195.70878847 290.74079254 196.18808678 270.85771843 196.15673828 252.28466797 C196.1584906 250.97851028 196.16024292 249.6723526 196.16204834 248.32661438 C196.16655371 244.78694754 196.16486118 241.2473103 196.16166925 237.70764303 C196.15910637 233.96810938 196.16149428 230.22857796 196.16305542 226.48904419 C196.16486713 220.2068843 196.16249854 213.92473622 196.15771484 207.64257812 C196.15228843 200.43428179 196.15402713 193.22601383 196.15954125 186.0177182 C196.16411812 179.77938056 196.16470039 173.54105134 196.16210258 167.30271256 C196.16056287 163.59891747 196.16028097 159.89513558 196.16363907 156.1913414 C196.52249312 126.53711839 196.52249312 126.53711839 193.27734375 97.1328125 C193.10251465 96.16641846 192.92768555 95.20002441 192.74755859 94.2043457 C191.37666238 87.06641768 189.48938338 80.5637524 186.02734375 74.1328125 C185.56328125 73.25753906 185.09921875 72.38226563 184.62109375 71.48046875 C173.9856908 52.67051406 156.70759064 43.82648431 136.52107239 38.1461792 C131.41643858 36.88771666 126.30564568 36.42970342 121.07299805 36.02441406 C119.99133456 35.94019321 118.90967108 35.85597237 117.79522991 35.76919937 C104.05764205 34.8015103 90.30636615 34.83968905 76.54305863 34.86416149 C72.699088 34.86934 68.85512533 34.86449834 65.01115417 34.86138916 C58.56772104 34.85778443 52.12433425 34.86245677 45.6809082 34.87207031 C38.29687062 34.88296199 30.9129435 34.87940982 23.52890855 34.8684175 C17.11366691 34.85926034 10.69845797 34.85809958 4.28321189 34.86329484 C0.48448775 34.86636701 -3.31418495 34.86695837 -7.1129055 34.86022186 C-23.04786902 34.83580195 -38.85329169 35.03599721 -54.70517921 36.87189484 Z " fill="#020202" transform="translate(331.97265625,172.8671875)"/>
<path d="M0 0 C15.71786998 13.56982993 26.74232618 32.09420879 31.75 52.1875 C31.95625 52.99445313 32.1625 53.80140625 32.375 54.6328125 C35.73554881 70.64209363 34.83322545 88.40977359 30.75 104.1875 C30.51796875 105.16847656 30.2859375 106.14945313 30.046875 107.16015625 C25.90990918 121.90316681 16.62791912 135.60658891 5.75 146.1875 C4.89792969 147.04085937 4.04585937 147.89421875 3.16796875 148.7734375 C2.37003906 149.57007813 1.57210937 150.36671875 0.75 151.1875 C0.19699219 151.74953125 -0.35601562 152.3115625 -0.92578125 152.890625 C-20.08976542 171.00264823 -46.8829863 177.06014441 -72.40625 176.46484375 C-98.68637689 175.43934009 -122.68522037 163.73895346 -140.71484375 144.56640625 C-146.35358161 137.92522611 -150.88544177 130.70164309 -155.25 123.1875 C-155.93191406 122.06214844 -156.61382812 120.93679688 -157.31640625 119.77734375 C-159.37342927 116.15774086 -160.67722089 112.47552342 -161.875 108.5 C-162.07867187 107.86900391 -162.28234375 107.23800781 -162.4921875 106.58789062 C-170.30918743 81.25780431 -168.01154739 53.5773162 -156.20751953 29.99951172 C-144.06558165 7.02208619 -122.36347161 -12.34155554 -97.3046875 -20.10546875 C-62.65530682 -29.95851429 -27.95653848 -22.25973442 0 0 Z " fill="#020202" transform="translate(434.25,291.8125)"/>
<path d="M0 0 C1.86011719 0.66128906 1.86011719 0.66128906 3.7578125 1.3359375 C19.77430277 7.38268584 32.65145836 19.69855898 39.8671875 35.30078125 C47.5826897 53.68496062 46.55249093 70.75870147 39.3125 89.125 C36.41268558 95.63522692 32.8004765 100.76653935 28 106 C27.44570313 106.63421875 26.89140625 107.2684375 26.3203125 107.921875 C17.10224333 117.88973927 1.57817261 125.95057866 -12.12792969 127.19287109 C-31.62966912 127.87779809 -47.09888635 124.79077683 -62.1875 111.625 C-63.80683958 110.09927849 -65.41208956 108.55840535 -67 107 C-67.639375 106.38511719 -68.27875 105.77023437 -68.9375 105.13671875 C-80.09895614 93.50189729 -85.67273808 75.9221908 -85.47509766 60.06445312 C-84.62489491 40.7681388 -76.03605057 25.37203825 -62.38671875 12.0703125 C-56.13305316 6.64569259 -48.66402236 3.00943287 -41 0 C-40.31292969 -0.30035156 -39.62585938 -0.60070312 -38.91796875 -0.91015625 C-27.24222961 -5.30645032 -11.48589716 -4.52277537 0 0 Z " fill="#FDFDFD" transform="translate(388,306)"/>
<path d="M0 0 C6.2189027 3.48895132 11.60693513 8.4800744 13.671875 15.42578125 C14.68742382 24.15950111 13.80617391 30.82278754 8.296875 37.86328125 C2.88904972 43.6132074 -2.06973201 45.35331738 -9.953125 45.67578125 C-16.38057703 45.45580428 -21.15058251 44.44994823 -26.015625 40.11328125 C-31.97261263 32.90684071 -33.50997846 27.0030669 -33.4140625 17.69921875 C-32.69074096 11.18932489 -29.74029288 7.30042961 -24.71875 3.26953125 C-16.83916645 -2.18952664 -9.06520719 -3.82551743 0 0 Z " fill="#050505" transform="translate(482.015625,241.88671875)"/>
<path d="M0 0 C0.66 0.33 1.32 0.66 2 1 C1.67 1.66 1.34 2.32 1 3 C0.34 3 -0.32 3 -1 3 C-1.33 3.99 -1.66 4.98 -2 6 C-2.66 6 -3.32 6 -4 6 C-4 6.66 -4 7.32 -4 8 C-5.64351457 9.36176922 -7.31522656 10.68962066 -9 12 C-10.68528688 13.64783606 -12.35697047 15.31002677 -14 17 C-12.52778565 11.97769914 -9.5510349 9.19721778 -5.875 5.6875 C-5.31167969 5.13771484 -4.74835938 4.58792969 -4.16796875 4.02148438 C-2.78537942 2.67404562 -1.39359084 1.33605727 0 0 Z " fill="#E3E3E3" transform="translate(328,316)"/>
<path d="M0 0 C0.33 0.99 0.66 1.98 1 3 C0.34 3 -0.32 3 -1 3 C-1.66 4.32 -2.32 5.64 -3 7 C-4.32 6.67 -5.64 6.34 -7 6 C-6.360625 5.731875 -5.72125 5.46375 -5.0625 5.1875 C-2.66868314 4.11332248 -2.66868314 4.11332248 -2 1 C-1.34 0.67 -0.68 0.34 0 0 Z " fill="#242424" transform="translate(211,200)"/>
<path d="M0 0 C0.66 0 1.32 0 2 0 C2 0.99 2 1.98 2 3 C2.66 3 3.32 3 4 3 C4.33 3.99 4.66 4.98 5 6 C4.01 6 3.02 6 2 6 C0.3125 3.5 0.3125 3.5 -1 1 C-0.67 0.67 -0.34 0.34 0 0 Z " fill="#EDEDED" transform="translate(317,405)"/>
</svg>
