<?xml version="1.0" encoding="UTF-8"?>
<svg version="1.1" xmlns="http://www.w3.org/2000/svg" width="435" height="228">
<path d="M0 0 C143.55 0 287.1 0 435 0 C435 75.24 435 150.48 435 228 C291.45 228 147.9 228 0 228 C0 152.76 0 77.52 0 0 Z " fill="#7A7A7A" transform="translate(0,0)"/>
<path d="M0 0 C143.55 0 287.1 0 435 0 C435 24.75 435 49.5 435 75 C291.45 75 147.9 75 0 75 C0 50.25 0 25.5 0 0 Z " fill="#7B7B7B" transform="translate(0,153)"/>
<path d="M0 0 C143.55 0 287.1 0 435 0 C435 22.77 435 45.54 435 69 C291.45 69 147.9 69 0 69 C0 46.23 0 23.46 0 0 Z " fill="#6B6B6B" transform="translate(0,84)"/>
<path d="M0 0 C143.55 0 287.1 0 435 0 C435 4.95 435 9.9 435 15 C291.45 15 147.9 15 0 15 C0 10.05 0 5.1 0 0 Z " fill="#616161" transform="translate(0,138)"/>
<path d="M0 0 C143.55 0 287.1 0 435 0 C435 3.63 435 7.26 435 11 C382.96792547 11.83267449 330.95700492 12.10598015 278.9190853 11.90999443 C269.21381836 11.87370404 259.50853239 11.84487585 249.80324035 11.81623887 C232.51570088 11.76504749 215.22818382 11.70847795 197.94067383 11.64819336 C181.21379453 11.58987606 164.48690957 11.53429907 147.76000977 11.48217773 C146.7173945 11.47892802 145.67477923 11.4756783 144.60056955 11.4723301 C139.36662044 11.45603259 134.13267117 11.43978653 128.89872181 11.42356598 C85.93245374 11.29034332 42.96621898 11.14815898 0 11 C0 7.37 0 3.74 0 0 Z " fill="#5B5B5B" transform="translate(0,84)"/>
<path d="M0 0 C143.55 0 287.1 0 435 0 C435 2.97 435 5.94 435 9 C291.45 9 147.9 9 0 9 C0 6.03 0 3.06 0 0 Z " fill="#676767" transform="translate(0,95)"/>
<path d="M0 0 C143.55 0 287.1 0 435 0 C435 2.97 435 5.94 435 9 C291.45 9 147.9 9 0 9 C0 6.03 0 3.06 0 0 Z " fill="#616161" transform="translate(0,129)"/>
<path d="M0 0 C143.55 0 287.1 0 435 0 C435 2.31 435 4.62 435 7 C388.86643216 7.87098472 342.74799691 8.1523981 296.60694349 8.13529945 C290.15531995 8.132976 283.70369904 8.13274682 277.2520752 8.13381577 C276.31657542 8.133969 275.38107564 8.13412223 274.41722739 8.13428011 C272.51438665 8.13459996 270.61154592 8.13492418 268.70870519 8.1352527 C251.1155177 8.13806445 233.52233553 8.13488621 215.92914891 8.12945233 C200.91321255 8.1249583 185.89728389 8.12578983 170.88134766 8.13037109 C153.26768461 8.13574268 135.65402611 8.13782091 118.04036236 8.13475883 C116.15867297 8.13444039 114.27698358 8.13412602 112.39529419 8.13381577 C111.47033207 8.13366149 110.54536995 8.13350721 109.59237868 8.13334826 C103.14620989 8.13249306 96.70004406 8.13392359 90.25387573 8.13629532 C82.40488892 8.13912118 74.55591209 8.13829572 66.70692641 8.13301457 C62.7215667 8.13041935 58.73622354 8.12930027 54.75086403 8.13266373 C36.48050072 8.14686025 18.25296588 7.88219045 0 7 C0 4.69 0 2.38 0 0 Z " fill="#4F4F4F" transform="translate(0,104)"/>
<path d="M0 0 C143.55 0 287.1 0 435 0 C435 2.31 435 4.62 435 7 C291.45 7 147.9 7 0 7 C0 4.69 0 2.38 0 0 Z " fill="#535353" transform="translate(0,146)"/>
<path d="M0 0 C143.55 0 287.1 0 435 0 C435 2.31 435 4.62 435 7 C291.45 7 147.9 7 0 7 C0 4.69 0 2.38 0 0 Z " fill="#9B9B9B" transform="translate(0,77)"/>
<path d="M0 0 C143.55 0 287.1 0 435 0 C435 2.97 435 5.94 435 9 C372.96 9 310.92 9 247 9 C247 8.67 247 8.34 247 8 C217.3 7.505 217.3 7.505 187 7 C187 6.67 187 6.34 187 6 C119.185 5.505 119.185 5.505 50 5 C50 4.67 50 4.34 50 4 C25.25 3.505 25.25 3.505 0 3 C0 2.01 0 1.02 0 0 Z " fill="#888888" transform="translate(0,153)"/>
<path d="M0 0 C143.55 0 287.1 0 435 0 C435 2.31 435 4.62 435 7 C403.98 7 372.96 7 341 7 C341 6.67 341 6.34 341 6 C247.61 5.67 154.22 5.34 58 5 C58 4.67 58 4.34 58 4 C38.86 3.67 19.72 3.34 0 3 C0 2.01 0 1.02 0 0 Z " fill="#878787" transform="translate(0,111)"/>
<path d="M0 0 C41.91 0 83.82 0 127 0 C127 0.33 127 0.66 127 1 C205.54 1.33 284.08 1.66 365 2 C365 2.33 365 2.66 365 3 C388.1 3.33 411.2 3.66 435 4 C435 4.33 435 4.66 435 5 C381.7548551 5.80082466 328.52961014 6.1136145 275.27910759 5.90999443 C265.69884847 5.87362754 256.11856977 5.84484462 246.53828486 5.81623887 C229.47480561 5.76510531 212.41134939 5.70853835 195.34790039 5.64819336 C178.84237549 5.58983393 162.33684479 5.53425846 145.83129883 5.48217773 C144.80168243 5.47892802 143.77206604 5.4756783 142.71124915 5.4723301 C137.54231886 5.45603205 132.37338841 5.43978611 127.20445788 5.42356598 C84.80294374 5.29044335 42.40146342 5.14835306 0 5 C0 3.35 0 1.7 0 0 Z " fill="#414141" transform="translate(0,114)"/>
<path d="M0 0 C143.55 0 287.1 0 435 0 C435 0.99 435 1.98 435 3 C428.65249228 3.14985953 422.30485561 3.29145881 415.95703125 3.42724609 C413.82515176 3.47379505 411.69330997 3.52212652 409.56152344 3.57275391 C393.99626108 3.94049636 378.43798171 4.03626776 362.86914062 4.02734375 C361.29593563 4.02691275 361.29593563 4.02691275 359.69094872 4.02647305 C327.85373882 4.0165839 296.01664664 3.90567524 264.17961897 3.80645686 C254.99535796 3.77786395 245.81109431 3.750164 236.62683047 3.72249681 C220.26049584 3.6731716 203.8941633 3.62318391 187.52783203 3.57275391 C171.6697602 3.52389149 155.81168741 3.47535708 139.95361328 3.42724609 C138.96909293 3.4242591 137.98457258 3.4212721 136.97021829 3.41819459 C132.02907022 3.40320531 127.08792214 3.38822229 122.14677405 3.37324238 C81.43117972 3.24979824 40.71558876 3.12526822 0 3 C0 2.01 0 1.02 0 0 Z " fill="#515151" transform="translate(0,66)"/>
<path d="M0 0 C143.55 0 287.1 0 435 0 C435 0.99 435 1.98 435 3 C391.46707915 4.24781165 347.94428245 4.05835063 304.39892926 3.90999443 C293.818608 3.87418156 283.23827097 3.84507539 272.65792879 3.81623887 C253.80196731 3.76467816 234.94602457 3.70809817 216.09008789 3.64819336 C197.81372805 3.59014098 179.53736334 3.53455723 161.26098633 3.48217773 C160.12737892 3.47892802 158.99377152 3.4756783 157.82581238 3.4723301 C152.13673148 3.45603603 146.44765046 3.43978926 140.75856936 3.42356598 C93.83902323 3.28970698 46.91950468 3.1476317 0 3 C0 2.01 0 1.02 0 0 Z " fill="#484848" transform="translate(0,126)"/>
<path d="M0 0 C143.55 0 287.1 0 435 0 C435 0.99 435 1.98 435 3 C382.96792547 3.83267449 330.95700492 4.10598015 278.9190853 3.90999443 C269.21381836 3.87370404 259.50853239 3.84487585 249.80324035 3.81623887 C232.51570088 3.76504749 215.22818382 3.70847795 197.94067383 3.64819336 C181.21379453 3.58987606 164.48690957 3.53429907 147.76000977 3.48217773 C146.7173945 3.47892802 145.67477923 3.4756783 144.60056955 3.4723301 C139.36662044 3.45603259 134.13267117 3.43978653 128.89872181 3.42356598 C85.93245379 3.29034332 42.96621862 3.14825418 0 3 C0 2.01 0 1.02 0 0 Z " fill="#4A4A4A" transform="translate(0,92)"/>
<path d="M0 0 C143.55 0 287.1 0 435 0 C435 0.99 435 1.98 435 3 C291.45 3 147.9 3 0 3 C0 2.01 0 1.02 0 0 Z " fill="#4D4D4D" transform="translate(0,150)"/>
<path d="M0 0 C143.55 0 287.1 0 435 0 C435 0.99 435 1.98 435 3 C291.45 3 147.9 3 0 3 C0 2.01 0 1.02 0 0 Z " fill="#8E8E8E" transform="translate(0,123)"/>
<path d="M0 0 C143.55 0 287.1 0 435 0 C435 0.99 435 1.98 435 3 C291.45 3 147.9 3 0 3 C0 2.01 0 1.02 0 0 Z " fill="#969696" transform="translate(0,89)"/>
<path d="M0 0 C143.55 0 287.1 0 435 0 C435 0.99 435 1.98 435 3 C291.45 3 147.9 3 0 3 C0 2.01 0 1.02 0 0 Z " fill="#939393" transform="translate(0,129)"/>
<path d="M0 0 C143.55 0 287.1 0 435 0 C435 0.99 435 1.98 435 3 C291.45 3 147.9 3 0 3 C0 2.01 0 1.02 0 0 Z " fill="#9E9E9E" transform="translate(0,69)"/>
<path d="M0 0 C10.23656281 0.00732746 20.47312431 0.00866558 30.70968937 0.00979571 C48.94947181 0.01195852 67.18924966 0.01854139 85.42902962 0.02809832 C103.09667262 0.03734557 120.76431436 0.04439011 138.43195931 0.04860613 C139.5298198 0.04886885 140.6276803 0.04913158 141.75880929 0.04940226 C147.26908853 0.05070775 152.77936777 0.05197135 158.28964702 0.05321417 C203.65609804 0.06350004 249.02254406 0.08104039 294.38899056 0.10353777 C294.38899056 1.09353777 294.38899056 2.08353777 294.38899056 3.10353777 C150.83899056 3.10353777 7.28899056 3.10353777 -140.61100944 3.10353777 C-140.61100944 2.44353777 -140.61100944 1.78353777 -140.61100944 1.10353777 C-93.73881702 0.11221956 -46.88119207 -0.03451593 0 0 Z " fill="#919191" transform="translate(140.61100944131613,100.89646222814918)"/>
<path d="M0 0 C40.83042519 -0.02319653 81.66084947 -0.04066176 122.49128 -0.05106533 C127.37821988 -0.05231514 132.26515975 -0.05360955 137.15209961 -0.05493164 C138.12447159 -0.05519395 139.09684357 -0.05545626 140.09868137 -0.05572652 C153.6744399 -0.05948074 167.25019546 -0.06562327 180.82595207 -0.07373433 C204.24204053 -0.087722 227.65812586 -0.09694 251.07421875 -0.09765625 C251.98602345 -0.09769482 252.89782814 -0.09773339 253.83726329 -0.09777313 C314.23011386 -0.09948243 374.61217106 0.15027526 435 1 C435 1.66 435 2.32 435 3 C291.45 3 147.9 3 0 3 C0 2.01 0 1.02 0 0 Z " fill="#919191" transform="translate(0,143)"/>
<path d="M0 0 C120.45 0 240.9 0 365 0 C365 0.66 365 1.32 365 2 C388.1 2 411.2 2 435 2 C435 2.33 435 2.66 435 3 C291.45 3 147.9 3 0 3 C0 2.01 0 1.02 0 0 Z " fill="#9F9F9F" transform="translate(0,81)"/>
<path d="M0 0 C143.55 0 287.1 0 435 0 C435 0.99 435 1.98 435 3 C291.45 3 147.9 3 0 3 C0 2.01 0 1.02 0 0 Z " fill="#858585" transform="translate(0,135)"/>
<path d="M0 0 C143.55 0 287.1 0 435 0 C435 0.99 435 1.98 435 3 C291.45 3 147.9 3 0 3 C0 2.01 0 1.02 0 0 Z " fill="#848484" transform="translate(0,95)"/>
<path d="M0 0 C143.55 0 287.1 0 435 0 C435 0.99 435 1.98 435 3 C377.27259976 4.3858528 319.54621763 3.94194442 261.80835652 3.62664449 C252.41928853 3.57556231 243.03020937 3.52772689 233.64111328 3.48217773 C232.97144405 3.47892802 232.30177482 3.4756783 231.61181258 3.4723301 C228.24933828 3.45603005 224.88686372 3.43978452 221.52438903 3.42356598 C194.0162143 3.29069382 166.50809386 3.14861995 139 3 C139 2.34 139 1.68 139 1 C138.44159487 1.00607553 137.88318974 1.01215105 137.30786324 1.01841068 C123.58764753 1.1672449 109.86737242 1.3088091 96.14700508 1.4429636 C89.51137349 1.50805544 82.8757872 1.57539191 76.24023438 1.64819336 C69.81466201 1.71860284 63.38905263 1.7826789 56.96337509 1.84269524 C54.53426772 1.86643264 52.10518005 1.89230261 49.67612076 1.92053413 C33.08537259 2.11145166 16.57342479 1.79483586 0 1 C0 0.67 0 0.34 0 0 Z " fill="#3F3F3F" transform="translate(0,104)"/>
<path d="M0 0 C45.87 0 91.74 0 139 0 C139 0.66 139 1.32 139 2 C214.9 2 290.8 2 369 2 C369 2.33 369 2.66 369 3 C247.23 3 125.46 3 0 3 C0 2.01 0 1.02 0 0 Z " fill="#B2B2B2" transform="translate(0,105)"/>
<path d="M0 0 C143.55 0 287.1 0 435 0 C435 0.99 435 1.98 435 3 C411.9 3 388.8 3 365 3 C365 2.34 365 1.68 365 1 C364.34247281 1.00249569 363.68494563 1.00499138 363.00749338 1.0075627 C323.81597215 1.15616726 284.62443265 1.29858568 245.43286093 1.4332476 C240.70035766 1.44951366 235.96785456 1.4658301 231.23535156 1.48217773 C230.29341173 1.48543066 229.3514719 1.48868358 228.38098843 1.49203508 C213.23834729 1.5444486 198.09572397 1.60091965 182.95310347 1.6589582 C167.35194405 1.71866135 151.75077309 1.77384671 136.14958346 1.82505554 C127.41340201 1.85385474 118.67723725 1.88459458 109.941082 1.92053413 C73.28007205 2.07035221 36.64954668 2.12836429 0 1 C0 0.67 0 0.34 0 0 Z " fill="#1A1A1A" transform="translate(0,80)"/>
<path d="M0 0 C1.24771586 -0.00085775 1.24771586 -0.00085775 2.52063811 -0.00173283 C16.92600045 -0.00971674 31.32087225 0.19514067 45.72265625 0.52734375 C47.98371498 0.57594061 50.2447828 0.62411607 52.50585938 0.671875 C57.84907122 0.78559597 63.19215429 0.90417128 68.53515625 1.02734375 C68.53515625 1.68734375 68.53515625 2.34734375 68.53515625 3.02734375 C7.22608112 3.10465628 -54.08187151 2.99293717 -115.390625 2.80859375 C-116.3018286 2.80585717 -117.21303219 2.80312058 -118.15184802 2.80030107 C-141.60029221 2.72981238 -165.04872695 2.65640297 -188.49715889 2.58196163 C-202.10235182 2.53879709 -215.70754708 2.49643381 -229.31274414 2.45458984 C-230.28386559 2.45160285 -231.25498704 2.44861585 -232.25553641 2.44553834 C-237.1318821 2.4305436 -242.00822783 2.41556169 -246.88457358 2.40058613 C-286.74466992 2.27815698 -326.60475915 2.15353314 -366.46484375 2.02734375 C-366.46484375 1.69734375 -366.46484375 1.36734375 -366.46484375 1.02734375 C-323.75539765 0.89919624 -281.04594955 0.77173336 -238.33649875 0.64516148 C-233.26966126 0.63014505 -228.20282379 0.61512307 -223.13598633 0.60009766 C-221.6232059 0.59561173 -221.6232059 0.59561173 -220.07986424 0.59103519 C-203.84883171 0.54289135 -187.61780054 0.49430059 -171.38676985 0.44553834 C-154.67481022 0.39534145 -137.96284916 0.34563946 -121.25088674 0.29637671 C-111.88827209 0.26876436 -102.52565819 0.24093559 -93.16304588 0.21253967 C-25.76779709 0.0083741 -25.76779709 0.0083741 0 0 Z " fill="#363636" transform="translate(366.46484375,70.97265625)"/>
<path d="M0 0 C27.39 0 54.78 0 83 0 C83 0.33 83 0.66 83 1 C146.855 1.495 146.855 1.495 212 2 C212 2.33 212 2.66 212 3 C190.23621701 4.18791748 168.49263603 4.13267024 146.70441127 4.10139394 C141.53020154 4.09505739 136.35599096 4.09454858 131.18177795 4.09336853 C121.42550605 4.09028512 111.66924561 4.0821129 101.91297871 4.07201904 C90.78806564 4.06076394 79.66315196 4.05532399 68.53823459 4.05032361 C45.69215008 4.03992709 22.84607569 4.02238682 0 4 C0 2.68 0 1.36 0 0 Z " fill="#686868" transform="translate(0,156)"/>
</svg>
