<?xml version="1.0" encoding="UTF-8"?>
<svg version="1.1" xmlns="http://www.w3.org/2000/svg" width="2500" height="2500">
<path d="M0 0 C0.97543762 0.0129007 0.97543762 0.0129007 1.97058105 0.02606201 C93.90199538 1.25170786 185.4785031 11.94264481 275 33 C276.31713989 33.30970734 276.31713989 33.30970734 277.66088867 33.62567139 C364.7861878 54.19044924 448.96575927 84.38687477 542 129 C543.20424644 129.58841551 544.40851143 130.17679305 545.61279297 130.76513672 C560.51911638 138.05794448 575.19951296 145.6100518 589.58203125 153.90234375 C594.01193926 156.45424381 598.49046749 158.89790291 602.99804688 161.30932617 C641.59286113 181.98361801 678.3676133 206.61513154 714 232 C714.76602539 232.54462891 715.53205078 233.08925781 716.32128906 233.65039062 C726.65262237 241.0093378 736.81273901 248.56906135 746.84375 256.33203125 C749.04899288 258.03789848 751.25875328 259.73779766 753.46875 261.4375 C766.74984795 271.67952052 779.70227539 282.29695741 792.4699707 293.17089844 C795.77239971 295.97975366 799.12141696 298.7210024 802.5 301.4375 C807.88142204 305.81334245 812.93998569 310.49308815 818.0078125 315.22265625 C820.32240262 317.38077719 822.66895746 319.4917381 825.0625 321.5625 C830.48027643 326.25940805 835.73441672 331.13435611 841 336 C841.55891434 336.51534805 842.11782867 337.03069611 842.69367981 337.56166077 C853.6874028 347.71613398 864.34336237 358.18747416 874.91235352 368.78198242 C877.58690335 371.46195281 880.26683976 374.13645484 882.94726562 376.81054688 C884.67480033 378.53874152 886.40202526 380.26724589 888.12890625 381.99609375 C888.91753555 382.78269882 889.70616486 383.56930389 890.51869202 384.37974548 C894.67426388 388.55281402 898.6640359 392.80967976 902.50767517 397.27186584 C904.26465218 399.30647113 906.08498481 401.27097418 907.9375 403.21875 C908.60523437 403.92386719 909.27296875 404.62898438 909.9609375 405.35546875 C910.63382813 406.06316406 911.30671875 406.77085937 912 407.5 C917.12949517 412.89481389 922.14257924 418.35846729 927 424 C927.73162354 424.84836426 927.73162354 424.84836426 928.47802734 425.71386719 C929.88406102 427.34847271 931.28652382 428.98605839 932.6875 430.625 C935.80023641 434.2662957 938.91435455 437.90588718 942.0546875 441.5234375 C947.4400557 447.7396063 952.66999666 454.03547687 957.71069336 460.53466797 C961.42385202 465.30920264 965.26114361 469.97195894 969.125 474.625 C974.17083454 480.71985476 979.06416199 486.88658805 983.73632812 493.27539062 C985.21841072 495.2980783 986.71060074 497.31313017 988.203125 499.328125 C1000.07047229 515.36521528 1011.82990491 531.46722156 1023 548 C1023.53206055 548.78713379 1024.06412109 549.57426758 1024.61230469 550.38525391 C1045.10601143 580.77104703 1064.35637154 611.8758366 1082 644 C1083.01411736 645.83344705 1084.02843499 647.66678333 1085.04296875 649.5 C1127.96131104 727.32215373 1162.40053738 809.55632659 1235.23828125 1155.09765625 C1235.30152588 1155.8655397 1235.36477051 1156.63342316 1235.42993164 1157.42457581 C1235.55791968 1159.02915597 1235.67997751 1160.63421592 1235.79733276 1162.23960876 C1235.94097169 1164.1960159 1236.09730496 1166.15150989 1236.26248169 1168.10621643 C1237.29684181 1181.80925752 1237.18257923 1195.54031332 1237.20018864 1209.27438951 C1237.20315849 1211.48192153 1237.20727028 1213.68944881 1237.21169281 1215.89697838 C1237.2253343 1222.87822494 1237.23501013 1229.8594601 1237.2388947 1236.84071904 C1237.24289209 1243.97647356 1237.25504052 1251.11209337 1237.28125 1258.24780273 C1237.40443445 1292.55975975 1237.49502438 1326.73273889 1234.19917297 1360.92601395 C1234.00744012 1362.92252614 1233.82428599 1364.91985651 1233.64147949 1366.91720581 C1232.93883646 1374.56076599 1232.13077519 1382.18758642 1231.25 1389.8125 C1231.12405457 1390.9238028 1230.99810913 1392.03510559 1230.86834717 1393.18008423 C1219.87619841 1489.81279749 1197.68448978 1584.6998385 1131 1760 C1130.51789062 1761.07314453 1130.03578125 1762.14628906 1129.5390625 1763.25195312 C1114.05176892 1797.55421553 1097.4682244 1831.39213056 1078.70654297 1864.02832031 C1076.93333971 1867.11607855 1075.17139655 1870.2100922 1073.41015625 1873.3046875 C1058.74010501 1899.00588794 1042.96799123 1923.83313941 1026.44287109 1948.36645508 C1024.18073669 1951.72667902 1021.93663011 1955.09851313 1019.6953125 1958.47265625 C1016.64857202 1963.04661192 1013.55242896 1967.57845413 1010.375 1972.0625 C1009.87629395 1972.76729492 1009.37758789 1973.47208984 1008.86376953 1974.19824219 C999.95412575 1986.73936991 990.80866902 1999.1140027 981.35742188 2011.25244141 C979.82109684 2013.23032172 978.29335127 2015.21468985 976.765625 2017.19921875 C965.67689903 2031.57227962 954.15795682 2045.57236173 942.37841797 2059.38330078 C940.91804713 2061.09611972 939.46106922 2062.81179531 938.00390625 2064.52734375 C932.51538496 2070.9744976 926.94604707 2077.32209923 921.22265625 2083.5625 C919.32578236 2085.64272725 917.46607057 2087.74556898 915.625 2089.875 C911.09034695 2095.0830122 906.38715974 2100.13497553 901.68212891 2105.18847656 C900.04593529 2106.95053123 898.41917374 2108.72091736 896.79296875 2110.4921875 C887.28018433 2120.78499595 877.40067344 2130.70747352 867.5 2140.625 C866.79605103 2141.33153717 866.09210205 2142.03807434 865.36682129 2142.76602173 C863.32042104 2144.81835037 861.27024824 2146.866831 859.21875 2148.9140625 C858.30684906 2149.82893181 858.30684906 2149.82893181 857.37652588 2150.76228333 C853.61754587 2154.50143424 849.73510165 2158.04599244 845.71594238 2161.50424194 C843.71415554 2163.2491658 841.84417617 2165.0899604 840 2167 C836.87154036 2170.17089998 833.63144648 2173.1256996 830.25390625 2176.02734375 C828.0402439 2177.96477787 825.87774978 2179.95129188 823.72143555 2181.95214844 C818.5369582 2186.7611782 813.22630525 2191.31785187 807.71484375 2195.75390625 C804.89326505 2198.0883059 802.19409288 2200.51990598 799.5 2203 C794.17368912 2207.89506128 788.63059305 2212.4617902 783 2217 C781.22848705 2218.4575077 779.45765983 2219.91584922 777.6875 2221.375 C771.84558604 2226.15249743 765.91943292 2230.81689455 759.97021484 2235.45947266 C757.8891181 2237.08669948 755.81360575 2238.72088808 753.73828125 2240.35546875 C744.88206265 2247.31163298 735.91028224 2254.06304171 726.7421875 2260.6027832 C723.77078319 2262.72660643 720.80922998 2264.86259623 717.86035156 2267.01757812 C707.00559913 2274.94087587 695.95156526 2282.51448742 684.75 2289.9375 C683.89805054 2290.5033783 683.04610107 2291.06925659 682.16833496 2291.65228271 C608.57772508 2340.52860095 530.56916999 2381.91884166 84.03515625 2498.23828125 C83.26920639 2498.30153595 82.50325653 2498.36479065 81.71409607 2498.42996216 C79.14362624 2498.63414108 76.57210334 2498.81754118 74 2499 C72.89755447 2499.08661896 71.79510895 2499.17323792 70.65925598 2499.26248169 C56.71772812 2500.23929301 42.76227239 2500.18212112 28.79321408 2500.20018864 C26.60260293 2500.20316069 24.41199654 2500.2072727 22.22138786 2500.21169281 C15.29300645 2500.22532717 8.36463651 2500.23500734 1.43624264 2500.2388947 C-5.64437189 2500.2428945 -12.72485083 2500.2550596 -19.80541992 2500.28125 C-53.64091968 2500.40363159 -87.33352417 2500.48244186 -121.04869461 2497.18846893 C-124.00422099 2496.90300623 -126.96203544 2496.64383626 -129.91967773 2496.38134766 C-135.45350422 2495.87601242 -140.97704182 2495.29933156 -146.5 2494.6875 C-147.93276276 2494.53167953 -147.93276276 2494.53167953 -149.39447021 2494.37271118 C-244.68378811 2483.97130972 -338.24049852 2462.60738799 -512 2398 C-513.22459766 2397.46693272 -514.44920684 2396.93389191 -515.67382812 2396.40087891 C-553.69439996 2379.79401413 -591.18732061 2361.42866335 -627.11621094 2340.66259766 C-630.18779981 2338.89172733 -633.26899844 2337.13840835 -636.3515625 2335.38671875 C-692.45612191 2303.40511555 -746.47097829 2266.38031425 -796.3515625 2225.34863281 C-798.61119158 2223.49996708 -800.89851035 2221.68711681 -803.1875 2219.875 C-809.23595306 2215.04835465 -815.11423108 2210.02221342 -821 2205 C-821.58894043 2204.49887695 -822.17788086 2203.99775391 -822.78466797 2203.48144531 C-829.5316444 2197.74003665 -836.22440482 2191.95465284 -842.78515625 2186 C-844.77412502 2184.20396471 -846.78563194 2182.44046697 -848.8125 2180.6875 C-853.39781573 2176.68910468 -857.8590822 2172.55767844 -862.31567383 2168.41723633 C-864.61725703 2166.28005465 -866.92445155 2164.1493229 -869.23803711 2162.02514648 C-879.35624961 2152.69950995 -889.11949284 2143.0342288 -898.83691406 2133.29345703 C-901.52033856 2130.60462042 -904.20913792 2127.92124044 -906.8984375 2125.23828125 C-908.63052943 2123.50552925 -910.36231154 2121.77246747 -912.09375 2120.0390625 C-912.88551636 2119.24932037 -913.67728271 2118.45957825 -914.49304199 2117.64590454 C-918.65761897 2113.46386824 -922.6571466 2109.19886796 -926.50891113 2104.72689819 C-928.26539715 2102.69263142 -930.0853833 2100.72860683 -931.9375 2098.78125 C-932.93910156 2097.72357422 -932.93910156 2097.72357422 -933.9609375 2096.64453125 C-934.63382813 2095.93683594 -935.30671875 2095.22914063 -936 2094.5 C-941.12949517 2089.10518611 -946.14257924 2083.64153271 -951 2078 C-951.48774902 2077.43442383 -951.97549805 2076.86884766 -952.47802734 2076.28613281 C-953.88406102 2074.65152729 -955.28652382 2073.01394161 -956.6875 2071.375 C-959.80023641 2067.7337043 -962.91435455 2064.09411282 -966.0546875 2060.4765625 C-971.4400557 2054.2603937 -976.66999666 2047.96452313 -981.71069336 2041.46533203 C-985.42384795 2036.69080259 -989.26099573 2032.02791374 -993.125 2027.375 C-998.63339515 2020.72530558 -1003.87954107 2013.95425651 -1009 2007 C-1009.91769383 2005.77876129 -1010.83706275 2004.55878011 -1011.7578125 2003.33984375 C-1046.11053636 1957.85245167 -1077.42112539 1909.89187996 -1105 1860 C-1105.49274414 1859.1121582 -1105.98548828 1858.22431641 -1106.49316406 1857.30957031 C-1114.96157427 1842.02852201 -1123.0379405 1826.54992298 -1131 1811 C-1131.76546143 1809.51209961 -1131.76546143 1809.51209961 -1132.54638672 1807.99414062 C-1175.69460239 1723.94545676 -1207.45910767 1633.28117269 -1262.50268555 1284.64550781 C-1262.56248762 1282.00054757 -1262.62765413 1279.35575698 -1262.69335938 1276.7109375 C-1264.99865892 1180.36957871 -1255.76198557 1083.62814986 -1193 837 C-1192.74732361 836.26883972 -1192.49464722 835.53767944 -1192.23431396 834.78436279 C-1176.1351011 788.28050124 -1156.7158692 742.97990397 -1134.92120361 698.86779785 C-1133.95971206 696.91831369 -1133.00260528 694.96672401 -1132.04638672 693.01464844 C-1123.99065963 676.57976547 -1115.63842597 660.43050697 -1106.47314453 644.57910156 C-1104.58237985 641.26885329 -1102.7638556 637.92223237 -1100.94921875 634.56982422 C-1086.40331486 607.71461006 -1069.77876213 582.09888641 -1052.875 556.6875 C-1052.37565948 555.93576508 -1051.87631897 555.18403015 -1051.36184692 554.40951538 C-1041.92122475 540.2102561 -1032.21172746 526.20375184 -1022.0625 512.5 C-1021.48459717 511.71794189 -1020.90669434 510.93588379 -1020.3112793 510.13012695 C-1004.49151095 488.78258095 -988.12376911 467.80516349 -970.8828125 447.58398438 C-968.03615846 444.24207912 -965.25419148 440.85582276 -962.5 437.4375 C-958.37192681 432.36248529 -953.99654409 427.55984584 -949.55078125 422.765625 C-947.51598117 420.55944053 -945.52353762 418.33367739 -943.5625 416.0625 C-939.13152544 410.95632932 -934.51598691 406.01691445 -929.90966797 401.06933594 C-928.5180275 399.56133995 -927.13843293 398.04220107 -925.76611328 396.51660156 C-916.01871071 385.7715174 -905.72028848 375.56770841 -895.45361328 365.32324219 C-892.77207905 362.64744101 -890.09511204 359.96712235 -887.41942215 357.28547859 C-885.32955541 355.19197609 -883.23728563 353.1008882 -881.14431 351.01049423 C-880.15655242 350.02339569 -879.16951462 349.03557626 -878.18326569 348.04697037 C-873.14320991 342.99749658 -868.06565903 338.06385665 -862.65048218 333.41690063 C-860.74747442 331.78321265 -858.91718632 330.08564623 -857.10546875 328.3515625 C-856.46577148 327.74344727 -855.82607422 327.13533203 -855.16699219 326.50878906 C-854.51375977 325.88713867 -853.86052734 325.26548828 -853.1875 324.625 C-847.83279574 319.56295674 -842.4049314 314.76261003 -836.640625 310.171875 C-833.65903037 307.71955752 -830.82459915 305.12892859 -828 302.5 C-823.49737397 298.3203744 -818.87589565 294.34828186 -814.08984375 290.49609375 C-811.75388832 288.60901977 -809.43631303 286.70659272 -807.12890625 284.78515625 C-798.66897597 277.74738644 -790.08578215 270.92374875 -781.3125 264.28125 C-777.61753776 261.48142434 -773.9642431 258.63172659 -770.31787109 255.76904297 C-760.72928531 248.24805438 -750.93907199 241.04948599 -741 234 C-740.42422211 233.58944366 -739.84844421 233.17888733 -739.25521851 232.75588989 C-727.94967477 224.69563319 -716.49828346 216.87656922 -704.9375 209.1875 C-704.08561096 208.62040314 -703.23372192 208.05330627 -702.35601807 207.46902466 C-662.29362943 180.82080411 -620.7811378 156.76938536 -577.89001465 134.96289062 C-575.98639451 133.99306852 -574.08518142 133.01867317 -572.18457031 132.04296875 C-551.12495292 121.23999876 -529.72802118 111.38122584 -508 102 C-506.66308433 101.42073939 -505.32617022 100.84147518 -503.98925781 100.26220703 C-430.97882344 68.69952597 -354.71171443 44.81515979 -277 28 C-276.20907959 27.8287561 -275.41815918 27.65751221 -274.60327148 27.4810791 C-188.36550809 8.89208925 -100.18288694 0.12015017 0 0 Z " fill="#000000" transform="translate(1263,0)"/>
<path d="M0 0 C53.7422419 -0.48092197 107.48426594 -0.85083044 161.22823733 -1.07237192 C167.57664091 -1.09863599 173.92504025 -1.12581683 180.2734375 -1.15356445 C181.5372612 -1.15907297 182.80108489 -1.16458149 184.10320628 -1.17025694 C204.55314675 -1.26157541 225.00184446 -1.4271156 245.45104825 -1.62020872 C266.44215829 -1.81676207 287.43261861 -1.9332694 308.42461109 -1.97585839 C321.37320667 -2.0046403 334.31828964 -2.09544547 347.26580346 -2.2662458 C356.15091338 -2.37746769 365.03421434 -2.41075679 373.91996944 -2.38352893 C379.0442322 -2.37010555 384.16237181 -2.39029166 389.28553772 -2.50331497 C421.56727132 -3.18053346 421.56727132 -3.18053346 429.81240845 4.50141335 C433.44863039 8.76418999 436.13295138 13.28575822 438.5922184 18.3040396 C440.90279912 22.72889792 443.95927582 26.55926037 447 30.5 C448.14947196 32.05982515 449.2957338 33.62202556 450.4375 35.1875 C454.23213585 40.33736294 458.11222192 45.42028038 462 50.5 C470.0413063 61.01139798 477.89060474 71.65631162 485.70898438 82.33398438 C493.05188811 92.35616884 500.48735999 102.29725718 508.03857422 112.16357422 C513.00664488 118.66581386 517.87579599 125.23453424 522.7109375 131.8359375 C527.07277032 137.77671433 531.52054548 143.6475326 536 149.5 C541.65067561 156.88268346 547.21023936 164.32359573 552.70214844 171.82495117 C557.14481102 177.87779513 561.68378637 183.85247959 566.25 189.8125 C570.99569878 196.00877085 575.65458099 202.24064107 580.14257812 208.62548828 C584.54319952 214.84399405 589.20347725 220.86366787 593.8359375 226.91015625 C598.28724225 232.72852838 602.6724824 238.58907773 607 244.5 C611.92549154 251.22508218 616.93348707 257.88053292 622 264.5 C627.65067561 271.88268346 633.21023936 279.32359573 638.70214844 286.82495117 C643.14481102 292.87779513 647.68378637 298.85247959 652.25 304.8125 C656.99569878 311.00877085 661.65458099 317.24064107 666.14257812 323.62548828 C670.54319952 329.84399405 675.20347725 335.86366787 679.8359375 341.91015625 C684.28724225 347.72852838 688.6724824 353.58907773 693 359.5 C697.92549154 366.22508218 702.93348707 372.88053292 708 379.5 C713.65290465 386.88559574 719.21433838 394.32967004 724.70874023 401.83374023 C729.08782606 407.79958611 733.56077261 413.68881759 738.0625 419.5625 C743.51748261 426.68312616 748.83958313 433.87932267 754.05566406 441.17626953 C759.0251069 448.09941859 764.19259733 454.86515545 769.375 461.62963867 C774.01262651 467.6869119 778.57511825 473.78478781 783 480 C789.46597153 474.85661355 794.88544066 468.83755071 800.41943359 462.73779297 C802.93033912 459.97711557 805.46585867 457.2393316 808 454.5 C809.00274626 453.41419371 810.00535027 452.32825603 811.0078125 451.2421875 C811.50313477 450.70561523 811.99845703 450.16904297 812.50878906 449.61621094 C813.98315742 448.01825441 815.45655295 446.41940645 816.9296875 444.8203125 C822.88134217 438.36221821 828.86103282 431.9313226 834.85888672 425.51611328 C839.32284221 420.73691018 843.7442573 415.92098907 848.15625 411.09375 C852.00997055 406.88969122 855.91281644 402.73143815 859.80859375 398.56640625 C863.39387131 394.7300808 866.95752254 390.8758871 870.5 387 C875.23331851 381.82119269 880.01594724 376.69029399 884.80859375 371.56640625 C888.39387131 367.7300808 891.95752254 363.8758871 895.5 360 C899.63791184 355.47263764 903.81024595 350.97940488 908 346.5 C913.13247534 341.01193233 918.22974271 335.49404776 923.30078125 329.94921875 C931.10293432 321.424435 938.966465 312.95777992 946.85864258 304.51635742 C951.32269837 299.73709041 955.74417969 294.92107399 960.15625 290.09375 C964.00997055 285.88969122 967.91281644 281.73143815 971.80859375 277.56640625 C975.39387131 273.7300808 978.95752254 269.8758871 982.5 266 C987.23331851 260.82119269 992.01594724 255.69029399 996.80859375 250.56640625 C1000.39387131 246.7300808 1003.95752254 242.8758871 1007.5 239 C1011.63791184 234.47263764 1015.81024595 229.97940488 1020 225.5 C1025.13247534 220.01193233 1030.22974271 214.49404776 1035.30078125 208.94921875 C1043.10293432 200.424435 1050.966465 191.95777992 1058.85864258 183.51635742 C1063.32269837 178.73709041 1067.74417969 173.92107399 1072.15625 169.09375 C1076.00997055 164.88969122 1079.91281644 160.73143815 1083.80859375 156.56640625 C1087.39387131 152.7300808 1090.95752254 148.8758871 1094.5 145 C1098.63791184 140.47263764 1102.81024595 135.97940488 1107 131.5 C1112.13247534 126.01193233 1117.22974271 120.49404776 1122.30078125 114.94921875 C1130.10293432 106.424435 1137.966465 97.95777992 1145.85864258 89.51635742 C1150.32269837 84.73709041 1154.74417969 79.92107399 1159.15625 75.09375 C1163.00997055 70.88969122 1166.91281644 66.73143815 1170.80859375 62.56640625 C1174.39387131 58.7300808 1177.95752254 54.8758871 1181.5 51 C1186.23331851 45.82119269 1191.01594724 40.69029399 1195.80859375 35.56640625 C1199.39387131 31.7300808 1202.95752254 27.8758871 1206.5 24 C1210.80774758 19.28840109 1215.14549697 14.60592189 1219.5 9.9375 C1220.10005859 9.29361328 1220.70011719 8.64972656 1221.31835938 7.98632812 C1221.88361328 7.38111328 1222.44886719 6.77589844 1223.03125 6.15234375 C1223.53205078 5.61601318 1224.03285156 5.07968262 1224.54882812 4.52709961 C1225.02771484 4.02315674 1225.50660156 3.51921387 1226 3 C1226.42039708 2.48094432 1226.84079416 1.96188864 1227.27393055 1.427104 C1229.61338808 -0.50714563 1231.05478101 -0.36990461 1234.06828308 -0.36076355 C1235.63950172 -0.36694954 1235.63950172 -0.36694954 1237.24246216 -0.3732605 C1238.96552078 -0.35708176 1238.96552078 -0.35708176 1240.72338867 -0.34057617 C1242.53820992 -0.34123329 1242.53820992 -0.34123329 1244.38969421 -0.34190369 C1247.70781166 -0.34017047 1251.02537069 -0.32511487 1254.34338927 -0.30418181 C1257.81072202 -0.28544094 1261.27806204 -0.28366663 1264.74543762 -0.28010559 C1271.31152992 -0.27077748 1277.87747255 -0.24615343 1284.44349891 -0.21605712 C1291.91861673 -0.18253687 1299.39374166 -0.1660331 1306.86891592 -0.15097082 C1322.24603065 -0.11960446 1337.62299603 -0.06682919 1353 0 C1351.37915347 3.44401787 1349.57463755 5.60671518 1346.8125 8.25 C1343.28693088 11.63355845 1340.06824089 15.18333623 1336.87182617 18.87207031 C1333.75444552 22.41597142 1330.49890929 25.82705612 1327.25 29.25 C1321.7065622 35.11420619 1316.2122257 41.01512799 1310.7734375 46.9765625 C1307.54256378 50.50951937 1304.27062256 54.00387802 1301 57.5 C1296.8101685 61.97933132 1292.63791084 66.47263872 1288.5 71 C1283.76668149 76.17880731 1278.98405276 81.30970601 1274.19140625 86.43359375 C1270.60612869 90.2699192 1267.04247746 94.1241129 1263.5 98 C1258.76668149 103.17880731 1253.98405276 108.30970601 1249.19140625 113.43359375 C1245.60612869 117.2699192 1242.04247746 121.1241129 1238.5 125 C1234.36208816 129.52736236 1230.18975405 134.02059512 1226 138.5 C1220.86752466 143.98806767 1215.77025729 149.50595224 1210.69921875 155.05078125 C1202.89706568 163.575565 1195.033535 172.04222008 1187.14135742 180.48364258 C1182.67730163 185.26290959 1178.25582031 190.07892601 1173.84375 194.90625 C1169.99002945 199.11030878 1166.08718356 203.26856185 1162.19140625 207.43359375 C1158.60612869 211.2699192 1155.04247746 215.1241129 1151.5 219 C1146.76668149 224.17880731 1141.98405276 229.30970601 1137.19140625 234.43359375 C1133.60612869 238.2699192 1130.04247746 242.1241129 1126.5 246 C1122.36208816 250.52736236 1118.18975405 255.02059512 1114 259.5 C1108.86752466 264.98806767 1103.77025729 270.50595224 1098.69921875 276.05078125 C1090.89706568 284.575565 1083.033535 293.04222008 1075.14135742 301.48364258 C1070.67730163 306.26290959 1066.25582031 311.07892601 1061.84375 315.90625 C1057.99002945 320.11030878 1054.08718356 324.26856185 1050.19140625 328.43359375 C1046.60612869 332.2699192 1043.04247746 336.1241129 1039.5 340 C1034.76668149 345.17880731 1029.98405276 350.30970601 1025.19140625 355.43359375 C1021.60612869 359.2699192 1018.04247746 363.1241129 1014.5 367 C1009.76668149 372.17880731 1004.98405276 377.30970601 1000.19140625 382.43359375 C996.60612869 386.2699192 993.04247746 390.1241129 989.5 394 C985.36208816 398.52736236 981.18975405 403.02059512 977 407.5 C971.86752466 412.98806767 966.77025729 418.50595224 961.69921875 424.05078125 C953.89706568 432.575565 946.033535 441.04222008 938.14135742 449.48364258 C933.67730163 454.26290959 929.25582031 459.07892601 924.84375 463.90625 C920.99002945 468.11030878 917.08718356 472.26856185 913.19140625 476.43359375 C909.60612869 480.2699192 906.04247746 484.1241129 902.5 488 C897.76668149 493.17880731 892.98405276 498.30970601 888.19140625 503.43359375 C884.60612869 507.2699192 881.04247746 511.1241129 877.5 515 C873.36208668 519.52736399 869.18963771 524.02048465 865 528.5 C859.7571409 534.10877293 854.52245386 539.72380818 849.359375 545.40625 C847.90614533 547.00384023 846.43999929 548.58992441 844.953125 550.15625 C843.07691235 552.12443765 843.07691235 552.12443765 841 555 C841.29940228 558.47386251 843.00190013 560.62140205 845.10546875 563.31640625 C845.75193359 564.15300781 846.39839844 564.98960937 847.06445312 565.8515625 C847.76505859 566.74617188 848.46566406 567.64078125 849.1875 568.5625 C850.66145775 570.4690466 852.13408962 572.3766189 853.60546875 574.28515625 C854.34716309 575.24566895 855.08885742 576.20618164 855.85302734 577.19580078 C858.96065782 581.25473229 861.98464007 585.37231313 865 589.5 C869.92471745 596.22563629 874.93350094 602.88055103 880 609.5 C885.65290465 616.88559574 891.21433838 624.32967004 896.70874023 631.83374023 C901.08782606 637.79958611 905.56077261 643.68881759 910.0625 649.5625 C915.52195656 656.6889662 920.84714321 663.89191237 926.06884766 671.19384766 C930.90970043 677.93598658 935.93963711 684.52600271 940.98828125 691.11328125 C945.3894518 696.8634696 949.72220925 702.65753654 954 708.5 C958.92552389 715.22505881 963.93348655 721.88053224 969 728.5 C974.65290465 735.88559574 980.21433838 743.32967004 985.70874023 750.83374023 C990.08782606 756.79958611 994.56077261 762.68881759 999.0625 768.5625 C1004.52195656 775.6889662 1009.84714321 782.89191237 1015.06884766 790.19384766 C1019.90970043 796.93598658 1024.93963711 803.52600271 1029.98828125 810.11328125 C1034.3894518 815.8634696 1038.72220925 821.65753654 1043 827.5 C1047.92552389 834.22505881 1052.93348655 840.88053224 1058 847.5 C1063.65290465 854.88559574 1069.21433838 862.32967004 1074.70874023 869.83374023 C1079.08782606 875.79958611 1083.56077261 881.68881759 1088.0625 887.5625 C1093.52195656 894.6889662 1098.84714321 901.89191237 1104.06884766 909.19384766 C1108.90970043 915.93598658 1113.93963711 922.52600271 1118.98828125 929.11328125 C1123.3894518 934.8634696 1127.72220925 940.65753654 1132 946.5 C1136.92552389 953.22505881 1141.93348655 959.88053224 1147 966.5 C1152.65353395 973.88641792 1158.21470194 981.33194466 1163.7109375 988.8359375 C1168.07277294 994.7767179 1172.52070271 1000.64740917 1177 1006.5 C1185.0413063 1017.01139798 1192.89060474 1027.65631162 1200.70898438 1038.33398438 C1208.05188811 1048.35616884 1215.48735999 1058.29725718 1223.03857422 1068.16357422 C1228.00664488 1074.66581386 1232.87579599 1081.23453424 1237.7109375 1087.8359375 C1242.07277163 1093.77671612 1246.52062409 1099.64747089 1251 1105.5 C1256.67230923 1112.91282362 1262.26147242 1120.37928057 1267.78125 1127.90625 C1271.98326094 1133.63280006 1276.23040368 1139.32368983 1280.5 1145 C1285.35209548 1151.45072667 1290.16411515 1157.92833884 1294.9375 1164.4375 C1300.5476984 1172.08314453 1306.2752143 1179.63338082 1312.03881836 1187.16381836 C1317.00673002 1193.66603498 1321.87586332 1200.23462618 1326.7109375 1206.8359375 C1331.07277163 1212.77671612 1335.52062409 1218.64747089 1340 1224.5 C1345.67230923 1231.91282362 1351.26147242 1239.37928057 1356.78125 1246.90625 C1360.98326094 1252.63280006 1365.23040368 1258.32368983 1369.5 1264 C1374.35209634 1270.45072783 1379.16402657 1276.92840303 1383.9375 1283.4375 C1388.93104794 1290.24101395 1394.00241362 1296.98063991 1399.125 1303.6875 C1399.79136475 1304.56051758 1400.45772949 1305.43353516 1401.14428711 1306.33300781 C1403.71959828 1309.70604889 1406.29519355 1313.07886682 1408.87402344 1316.44921875 C1410.58742836 1318.6917498 1412.29453979 1320.93892424 1414 1323.1875 C1414.51062988 1323.85289795 1415.02125977 1324.5182959 1415.54736328 1325.20385742 C1419 1329.77159757 1419 1329.77159757 1419 1332 C1365.15534671 1332.32040641 1311.31078969 1332.56711557 1257.46537069 1332.71491461 C1251.10923645 1332.73242462 1244.75310409 1332.75054512 1238.39697266 1332.76904297 C1236.49887632 1332.77455149 1236.49887632 1332.77455149 1234.5624346 1332.78017129 C1214.07000952 1332.84109902 1193.57813398 1332.95148746 1173.08603497 1333.08013915 C1152.06101025 1333.21103623 1131.03627342 1333.28881753 1110.01085794 1333.31723893 C1097.03546079 1333.33645438 1084.0616168 1333.39715109 1071.08669774 1333.51083054 C1062.19063319 1333.58480531 1053.29537213 1333.60720876 1044.3990223 1333.58901928 C1039.26469251 1333.58004607 1034.13307703 1333.59384362 1028.99922943 1333.66887665 C1024.29595777 1333.73711433 1019.59721846 1333.74040223 1014.89373617 1333.69258453 C1013.19495849 1333.68667776 1011.49589585 1333.70437307 1009.79767759 1333.74836455 C997.45035016 1334.04955147 997.45035016 1334.04955147 993.36341831 1330.63111058 C990.36531163 1327.3061425 988.12082347 1323.62815221 985.98023252 1319.71262409 C984.54505102 1317.20513086 982.80051753 1314.97331716 981.015625 1312.70703125 C980.39816406 1311.90265625 979.78070312 1311.09828125 979.14453125 1310.26953125 C978.51933594 1309.45871094 977.89414063 1308.64789062 977.25 1307.8125 C972.09693449 1301.09111021 967.00312796 1294.33373316 962 1287.5 C957.07450695 1280.77491576 952.06642396 1274.1195368 947 1267.5 C941.32769077 1260.08717638 935.73852758 1252.62071943 930.21875 1245.09375 C926.01673906 1239.36719994 921.76959632 1233.67631017 917.5 1228 C912.64790452 1221.54927333 907.83588485 1215.07166116 903.0625 1208.5625 C897.4523016 1200.91685547 891.7247857 1193.36661918 885.96118164 1185.83618164 C880.99326998 1179.33396502 876.12413668 1172.76537382 871.2890625 1166.1640625 C866.92722868 1160.22328431 862.4793966 1154.35251303 858 1148.5 C852.25628366 1140.9943524 846.59794097 1133.43312357 841.0078125 1125.8125 C837.36846391 1120.85201802 833.70023321 1115.91521683 830 1111 C825.70917798 1105.30027261 821.46976112 1099.56499947 817.25 1093.8125 C811.57681778 1086.08436511 805.78860854 1078.44997046 799.96191406 1070.8371582 C794.99377647 1064.33460185 790.12437737 1057.76570244 785.2890625 1051.1640625 C780.92722837 1045.22328388 776.47937591 1039.35252911 772 1033.5 C766.32769077 1026.08717638 760.73852758 1018.62071943 755.21875 1011.09375 C751.01673906 1005.36719994 746.76959632 999.67631017 742.5 994 C737.64790452 987.54927333 732.83588485 981.07166116 728.0625 974.5625 C722.4523016 966.91685547 716.7247857 959.36661918 710.96118164 951.83618164 C705.99326998 945.33396502 701.12413668 938.76537382 696.2890625 932.1640625 C691.92722868 926.22328431 687.4793966 920.35251303 683 914.5 C677.25628366 906.9943524 671.59794097 899.43312357 666.0078125 891.8125 C662.36846391 886.85201802 658.70023321 881.91521683 655 877 C650.70917894 871.30027388 646.46965827 865.56507407 642.25 859.8125 C637.22208824 852.96108749 632.10652075 846.18298539 626.9375 839.4375 C619.77426438 830.08772062 612.83797534 820.58955788 606 811 C602.81058851 812.51876738 600.66753164 814.08940757 598.1875 816.625 C597.56230469 817.25664063 596.93710938 817.88828125 596.29296875 818.5390625 C594.37988381 820.59228824 592.52814548 822.67549184 590.6875 824.79296875 C587.15630261 828.84962792 583.50628196 832.77910507 579.8125 836.6875 C578.48919194 838.0933817 577.16628028 839.49963661 575.84375 840.90625 C574.86921875 841.94265625 574.86921875 841.94265625 573.875 843 C569.7051521 847.44783776 565.58016591 851.93716997 561.45166016 856.42333984 C558.970536 859.1181094 556.48504209 861.80884393 554 864.5 C551.02204045 867.72527752 548.04463117 870.95105166 545.0703125 874.1796875 C539.11865783 880.63778179 533.13896718 887.0686774 527.14111328 893.48388672 C522.67715779 898.26308982 518.2557427 903.07901093 513.84375 907.90625 C509.99002945 912.11030878 506.08718356 916.26856185 502.19140625 920.43359375 C498.60612869 924.2699192 495.04247746 928.1241129 491.5 932 C486.76668149 937.17880731 481.98405276 942.30970601 477.19140625 947.43359375 C473.60612869 951.2699192 470.04247746 955.1241129 466.5 959 C461.76668149 964.17880731 456.98405276 969.30970601 452.19140625 974.43359375 C448.60612869 978.2699192 445.04247746 982.1241129 441.5 986 C437.36208816 990.52736236 433.18975405 995.02059512 429 999.5 C423.86752466 1004.98806767 418.77025729 1010.50595224 413.69921875 1016.05078125 C405.89706568 1024.575565 398.033535 1033.04222008 390.14135742 1041.48364258 C385.67730163 1046.26290959 381.25582031 1051.07892601 376.84375 1055.90625 C372.99002945 1060.11030878 369.08718356 1064.26856185 365.19140625 1068.43359375 C361.60612869 1072.2699192 358.04247746 1076.1241129 354.5 1080 C349.76668149 1085.17880731 344.98405276 1090.30970601 340.19140625 1095.43359375 C336.60612869 1099.2699192 333.04247746 1103.1241129 329.5 1107 C325.36208816 1111.52736236 321.18975405 1116.02059512 317 1120.5 C311.86752466 1125.98806767 306.77025729 1131.50595224 301.69921875 1137.05078125 C293.89706568 1145.575565 286.033535 1154.04222008 278.14135742 1162.48364258 C273.67730163 1167.26290959 269.25582031 1172.07892601 264.84375 1176.90625 C260.99002945 1181.11030878 257.08718356 1185.26856185 253.19140625 1189.43359375 C249.60612869 1193.2699192 246.04247746 1197.1241129 242.5 1201 C237.76668149 1206.17880731 232.98405276 1211.30970601 228.19140625 1216.43359375 C224.60612869 1220.2699192 221.04247746 1224.1241129 217.5 1228 C213.36208816 1232.52736236 209.18975405 1237.02059512 205 1241.5 C199.86752466 1246.98806767 194.77025729 1252.50595224 189.69921875 1258.05078125 C181.89706568 1266.575565 174.033535 1275.04222008 166.14135742 1283.48364258 C161.67730163 1288.26290959 157.25582031 1293.07892601 152.84375 1297.90625 C149.5863505 1301.45977673 146.29278739 1304.97929492 143 1308.5 C138.59140624 1313.2174185 134.1873188 1317.93871433 129.8125 1322.6875 C128.95269531 1323.61949219 128.09289062 1324.55148437 127.20703125 1325.51171875 C125.01563242 1327.84085273 125.01563242 1327.84085273 123.68120098 1330.12545395 C122 1332 122 1332 119.67868519 1332.49219131 C118.75965758 1332.48850414 117.84062998 1332.48481697 116.89375305 1332.48101807 C115.8378598 1332.48651672 114.78196655 1332.49201538 113.69407654 1332.49768066 C112.53602005 1332.48329956 111.37796356 1332.46891846 110.18481445 1332.45410156 C108.96518005 1332.45468567 107.74554565 1332.45526978 106.48895264 1332.45587158 C103.14380932 1332.45356045 99.79965061 1332.43348669 96.45468163 1332.40557575 C92.95933441 1332.38058863 89.46397439 1332.37822224 85.96855164 1332.37347412 C79.34928052 1332.36103635 72.73027333 1332.32820418 66.1111185 1332.28807616 C58.5755585 1332.24338315 51.03998598 1332.22137768 43.50432646 1332.20129442 C28.0027314 1332.15947202 12.50139972 1332.08910472 -3 1332 C-1.37915347 1328.55598213 0.42536245 1326.39328482 3.1875 1323.75 C6.724765 1320.35521678 9.95660536 1316.7933476 13.16381836 1313.09228516 C16.09128859 1309.7565027 19.1393744 1306.5377252 22.1875 1303.3125 C23.51080806 1301.9066183 24.83371972 1300.50036339 26.15625 1299.09375 C26.8059375 1298.4028125 27.455625 1297.711875 28.125 1297 C30.82719241 1294.11766143 33.51026048 1291.21800706 36.1875 1288.3125 C36.6719458 1287.7868042 37.1563916 1287.2611084 37.65551758 1286.71948242 C39.10408905 1285.14669916 40.55206724 1283.57337127 42 1282 C48.92546877 1274.47939192 55.87671891 1266.98412914 62.85888672 1259.51611328 C67.32284221 1254.73691018 71.7442573 1249.92098907 76.15625 1245.09375 C79.41364794 1241.54022497 82.70707554 1238.02057466 86 1234.5 C91.13247534 1229.01193233 96.22974271 1223.49404776 101.30078125 1217.94921875 C109.10293432 1209.424435 116.966465 1200.95777992 124.85864258 1192.51635742 C129.32269837 1187.73709041 133.74417969 1182.92107399 138.15625 1178.09375 C142.00997055 1173.88969122 145.91281644 1169.73143815 149.80859375 1165.56640625 C153.39387131 1161.7300808 156.95752254 1157.8758871 160.5 1154 C165.23331851 1148.82119269 170.01594724 1143.69029399 174.80859375 1138.56640625 C178.39387131 1134.7300808 181.95752254 1130.8758871 185.5 1127 C190.23331851 1121.82119269 195.01594724 1116.69029399 199.80859375 1111.56640625 C203.39387131 1107.7300808 206.95752254 1103.8758871 210.5 1100 C214.63791184 1095.47263764 218.81024595 1090.97940488 223 1086.5 C228.13247534 1081.01193233 233.22974271 1075.49404776 238.30078125 1069.94921875 C246.10293432 1061.424435 253.966465 1052.95777992 261.85864258 1044.51635742 C266.32269837 1039.73709041 270.74417969 1034.92107399 275.15625 1030.09375 C279.00997055 1025.88969122 282.91281644 1021.73143815 286.80859375 1017.56640625 C290.39387131 1013.7300808 293.95752254 1009.8758871 297.5 1006 C302.23331851 1000.82119269 307.01594724 995.69029399 311.80859375 990.56640625 C315.39387131 986.7300808 318.95752254 982.8758871 322.5 979 C326.63791184 974.47263764 330.81024595 969.97940488 335 965.5 C340.13247534 960.01193233 345.22974271 954.49404776 350.30078125 948.94921875 C358.10293432 940.424435 365.966465 931.95777992 373.85864258 923.51635742 C378.32269837 918.73709041 382.74417969 913.92107399 387.15625 909.09375 C391.00997055 904.88969122 394.91281644 900.73143815 398.80859375 896.56640625 C402.39387131 892.7300808 405.95752254 888.8758871 409.5 885 C414.23331851 879.82119269 419.01594724 874.69029399 423.80859375 869.56640625 C427.39387131 865.7300808 430.95752254 861.8758871 434.5 858 C439.23331851 852.82119269 444.01594724 847.69029399 448.80859375 842.56640625 C452.39387131 838.7300808 455.95752254 834.8758871 459.5 831 C463.63791184 826.47263764 467.81024595 821.97940488 472 817.5 C477.13247534 812.01193233 482.22974271 806.49404776 487.30078125 800.94921875 C495.10293432 792.424435 502.966465 783.95777992 510.85864258 775.51635742 C515.31767989 770.74246324 519.73473297 765.93239291 524.140625 761.109375 C527.48238337 757.46338827 530.86860042 753.8591738 534.25 750.25 C538.93202604 745.25015222 543.56316504 740.220787 548 735 C545.02435201 729.45513398 541.54629599 724.66060379 537.625 719.75 C532.67776872 713.47490955 527.83913201 707.13955463 523.125 700.6875 C518.15970782 693.89819437 513.11334308 687.17851445 508 680.5 C502.34696973 673.11450213 496.78565963 665.67032725 491.29125977 658.16625977 C486.91217394 652.20041389 482.43922739 646.31118241 477.9375 640.4375 C472.47804344 633.3110338 467.15285679 626.10808763 461.93115234 618.80615234 C457.09029957 612.06401342 452.06036289 605.47399729 447.01171875 598.88671875 C442.6105482 593.1365304 438.27779075 587.34246346 434 581.5 C429.07447611 574.77494119 424.06651345 568.11946776 419 561.5 C413.34709535 554.11440426 407.78566162 546.67032996 402.29125977 539.16625977 C397.91217394 533.20041389 393.43922739 527.31118241 388.9375 521.4375 C383.47804344 514.3110338 378.15285679 507.10808763 372.93115234 499.80615234 C368.09029957 493.06401342 363.06036289 486.47399729 358.01171875 479.88671875 C353.6105482 474.1365304 349.27779075 468.34246346 345 462.5 C340.07447611 455.77494119 335.06651345 449.11946776 330 442.5 C324.34709535 435.11440426 318.78566162 427.67032996 313.29125977 420.16625977 C308.91217394 414.20041389 304.43922739 408.31118241 299.9375 402.4375 C294.47804344 395.3110338 289.15285679 388.10808763 283.93115234 380.80615234 C279.09029957 374.06401342 274.06036289 367.47399729 269.01171875 360.88671875 C264.6105482 355.1365304 260.27779075 349.34246346 256 343.5 C251.07447611 336.77494119 246.06651345 330.11946776 241 323.5 C235.34709535 316.11440426 229.78566162 308.67032996 224.29125977 301.16625977 C219.91217394 295.20041389 215.43922739 289.31118241 210.9375 283.4375 C205.47804344 276.3110338 200.15285679 269.10808763 194.93115234 261.80615234 C190.09029957 255.06401342 185.06036289 248.47399729 180.01171875 241.88671875 C175.6105482 236.1365304 171.27779075 230.34246346 167 224.5 C162.07447611 217.77494119 157.06651345 211.11946776 152 204.5 C146.34709535 197.11440426 140.78566162 189.67032996 135.29125977 182.16625977 C130.91217394 176.20041389 126.43922739 170.31118241 121.9375 164.4375 C116.47804344 157.3110338 111.15285679 150.10808763 105.93115234 142.80615234 C101.09029957 136.06401342 96.06036289 129.47399729 91.01171875 122.88671875 C86.6105482 117.1365304 82.27779075 111.34246346 78 105.5 C73.07447611 98.77494119 68.06651345 92.11946776 63 85.5 C57.34709535 78.11440426 51.78566162 70.67032996 46.29125977 63.16625977 C41.91217293 57.20041253 37.43917132 51.31122669 32.9375 45.4375 C27.39831122 38.20563387 21.98127517 30.90246206 16.68066406 23.49414062 C12.41726969 17.54309675 8.04146856 11.68278354 3.60449219 5.86010742 C0 1.10455459 0 1.10455459 0 0 Z " fill="#FEFEFE" transform="translate(543,585)"/>
<path d="M0 0 C25.0866065 -0.37419957 50.17279329 -0.6561194 75.26163101 -0.82899475 C86.91169926 -0.91140813 98.56003101 -1.02370435 110.20898438 -1.20703125 C120.3655165 -1.36679442 130.52079098 -1.46979651 140.67854476 -1.50541592 C146.05502435 -1.52623155 151.4279071 -1.57492915 156.80323029 -1.69168091 C161.87042548 -1.80084157 166.93256844 -1.8336864 172.00082779 -1.8097229 C173.85373357 -1.81410141 175.70681958 -1.84562962 177.55870438 -1.9072876 C191.15565171 -2.33753601 191.15565171 -2.33753601 195.91916943 1.57720757 C199.4809562 5.3972258 202.25986021 9.62774262 204.88694715 14.12653732 C206.32019081 16.53893716 207.96549075 18.75547669 209.671875 20.98046875 C210.69820504 22.38260146 211.72424953 23.78494324 212.75 25.1875 C218.42211962 32.91640173 224.21140844 40.55005174 230.03808594 48.1628418 C235.00622353 54.66539815 239.87562263 61.23429756 244.7109375 67.8359375 C249.07277163 73.77671612 253.52062409 79.64747089 258 85.5 C263.67230923 92.91282362 269.26147242 100.37928057 274.78125 107.90625 C278.98326094 113.63280006 283.23040368 119.32368983 287.5 125 C292.35209548 131.45072667 297.16411515 137.92833884 301.9375 144.4375 C307.5476984 152.08314453 313.2752143 159.63338082 319.03881836 167.16381836 C324.00673002 173.66603498 328.87586332 180.23462618 333.7109375 186.8359375 C338.07277163 192.77671612 342.52062409 198.64747089 347 204.5 C352.67230923 211.91282362 358.26147242 219.37928057 363.78125 226.90625 C367.98326094 232.63280006 372.23040368 238.32368983 376.5 244 C381.35209548 250.45072667 386.16411515 256.92833884 390.9375 263.4375 C396.5476984 271.08314453 402.2752143 278.63338082 408.03881836 286.16381836 C413.00673002 292.66603498 417.87586332 299.23462618 422.7109375 305.8359375 C427.07277163 311.77671612 431.52062409 317.64747089 436 323.5 C441.67230923 330.91282362 447.26147242 338.37928057 452.78125 345.90625 C456.98326094 351.63280006 461.23040368 357.32368983 465.5 363 C470.35209548 369.45072667 475.16411515 375.92833884 479.9375 382.4375 C485.5476984 390.08314453 491.2752143 397.63338082 497.03881836 405.16381836 C502.00673002 411.66603498 506.87586332 418.23462618 511.7109375 424.8359375 C516.07277163 430.77671612 520.52062409 436.64747089 525 442.5 C530.67230923 449.91282362 536.26147242 457.37928057 541.78125 464.90625 C545.98326094 470.63280006 550.23040368 476.32368983 554.5 482 C559.35209548 488.45072667 564.16411515 494.92833884 568.9375 501.4375 C574.5476984 509.08314453 580.2752143 516.63338082 586.03881836 524.16381836 C591.00673002 530.66603498 595.87586332 537.23462618 600.7109375 543.8359375 C605.07277163 549.77671612 609.52062409 555.64747089 614 561.5 C619.67230923 568.91282362 625.26147242 576.37928057 630.78125 583.90625 C634.98326094 589.63280006 639.23040368 595.32368983 643.5 601 C648.35209548 607.45072667 653.16411515 613.92833884 657.9375 620.4375 C663.5476984 628.08314453 669.2752143 635.63338082 675.03881836 643.16381836 C680.00673002 649.66603498 684.87586332 656.23462618 689.7109375 662.8359375 C694.07277163 668.77671612 698.52062409 674.64747089 703 680.5 C708.67230923 687.91282362 714.26147242 695.37928057 719.78125 702.90625 C723.98326094 708.63280006 728.23040368 714.32368983 732.5 720 C737.35209548 726.45072667 742.16411515 732.92833884 746.9375 739.4375 C752.5476984 747.08314453 758.2752143 754.63338082 764.03881836 762.16381836 C769.00673002 768.66603498 773.87586332 775.23462618 778.7109375 781.8359375 C783.07277163 787.77671612 787.52062409 793.64747089 792 799.5 C797.67230923 806.91282362 803.26147242 814.37928057 808.78125 821.90625 C812.98326094 827.63280006 817.23040368 833.32368983 821.5 839 C826.35209548 845.45072667 831.16411515 851.92833884 835.9375 858.4375 C841.5476984 866.08314453 847.2752143 873.63338082 853.03881836 881.16381836 C858.00673002 887.66603498 862.87586332 894.23462618 867.7109375 900.8359375 C872.07277163 906.77671612 876.52062409 912.64747089 881 918.5 C886.67230923 925.91282362 892.26147242 933.37928057 897.78125 940.90625 C901.98326094 946.63280006 906.23040368 952.32368983 910.5 958 C915.35209548 964.45072667 920.16411515 970.92833884 924.9375 977.4375 C930.5476984 985.08314453 936.2752143 992.63338082 942.03881836 1000.16381836 C947.00673002 1006.66603498 951.87586332 1013.23462618 956.7109375 1019.8359375 C961.07277163 1025.77671612 965.52062409 1031.64747089 970 1037.5 C975.67230923 1044.91282362 981.26147242 1052.37928057 986.78125 1059.90625 C990.98326094 1065.63280006 995.23040368 1071.32368983 999.5 1077 C1004.35209548 1083.45072667 1009.16411515 1089.92833884 1013.9375 1096.4375 C1018.88603774 1103.18142558 1023.91697702 1109.85691378 1029 1116.5 C1034.37050884 1123.52035845 1039.68990384 1130.57469609 1044.9375 1137.6875 C1045.53498047 1138.49574219 1046.13246094 1139.30398438 1046.74804688 1140.13671875 C1047.29396484 1140.87921875 1047.83988281 1141.62171875 1048.40234375 1142.38671875 C1048.88179443 1143.03858154 1049.36124512 1143.69044434 1049.85522461 1144.36206055 C1051 1146 1051 1146 1052 1148 C1026.8612618 1148.25707782 1001.72272086 1148.45099439 976.58293247 1148.56993389 C964.90974015 1148.62663035 953.23736502 1148.70391173 941.56469727 1148.82983398 C931.38952251 1148.93954918 921.21493959 1149.01045784 911.03918976 1149.03497344 C905.65190762 1149.04930254 900.26631843 1149.08291958 894.87957954 1149.16303062 C889.80570776 1149.23787515 884.73422055 1149.2606939 879.65984917 1149.24418449 C877.80099382 1149.24720305 875.94205622 1149.26898567 874.0836792 1149.31126022 C860.06646506 1149.61440018 860.06646506 1149.61440018 854.9600811 1145.62510109 C852.65868 1142.85257157 850.81507753 1140.10627817 849 1137 C847.89099978 1135.48974532 846.76788576 1133.98957454 845.62109375 1132.5078125 C844.55736972 1131.04871326 843.49622872 1129.58772789 842.4375 1128.125 C837.3554995 1121.16217652 832.18357399 1114.27746932 826.9375 1107.4375 C821.47777441 1100.31124482 816.15285061 1093.10807898 810.93115234 1085.80615234 C806.09029957 1079.06401342 801.06036289 1072.47399729 796.01171875 1065.88671875 C791.6105482 1060.1365304 787.27779075 1054.34246346 783 1048.5 C778.07447611 1041.77494119 773.06651345 1035.11946776 768 1028.5 C762.34709535 1021.11440426 756.78566162 1013.67032996 751.29125977 1006.16625977 C746.91217394 1000.20041389 742.43922739 994.31118241 737.9375 988.4375 C732.47804344 981.3110338 727.15285679 974.10808763 721.93115234 966.80615234 C717.09029957 960.06401342 712.06036289 953.47399729 707.01171875 946.88671875 C702.6105482 941.1365304 698.27779075 935.34246346 694 929.5 C689.07447611 922.77494119 684.06651345 916.11946776 679 909.5 C673.34709535 902.11440426 667.78566162 894.67032996 662.29125977 887.16625977 C657.91217394 881.20041389 653.43922739 875.31118241 648.9375 869.4375 C643.47804344 862.3110338 638.15285679 855.10808763 632.93115234 847.80615234 C628.09029957 841.06401342 623.06036289 834.47399729 618.01171875 827.88671875 C613.6105482 822.1365304 609.27779075 816.34246346 605 810.5 C600.07447611 803.77494119 595.06651345 797.11946776 590 790.5 C584.34709535 783.11440426 578.78566162 775.67032996 573.29125977 768.16625977 C568.91217394 762.20041389 564.43922739 756.31118241 559.9375 750.4375 C554.47804344 743.3110338 549.15285679 736.10808763 543.93115234 728.80615234 C539.09029957 722.06401342 534.06036289 715.47399729 529.01171875 708.88671875 C524.6105482 703.1365304 520.27779075 697.34246346 516 691.5 C511.07447611 684.77494119 506.06651345 678.11946776 501 671.5 C495.34709535 664.11440426 489.78566162 656.67032996 484.29125977 649.16625977 C479.91217394 643.20041389 475.43922739 637.31118241 470.9375 631.4375 C465.47804344 624.3110338 460.15285679 617.10808763 454.93115234 609.80615234 C450.09029957 603.06401342 445.06036289 596.47399729 440.01171875 589.88671875 C435.6105482 584.1365304 431.27779075 578.34246346 427 572.5 C422.07447611 565.77494119 417.06651345 559.11946776 412 552.5 C406.34932439 545.11731654 400.78976064 537.67640427 395.29785156 530.17504883 C390.85518898 524.12220487 386.31621363 518.14752041 381.75 512.1875 C377.00430122 505.99122915 372.34541901 499.75935893 367.85742188 493.37451172 C363.45680048 487.15600595 358.79652275 481.13633213 354.1640625 475.08984375 C349.71275775 469.27147162 345.3275176 463.41092227 341 457.5 C336.07450846 450.77491782 331.06651293 444.11946708 326 437.5 C320.34709535 430.11440426 314.78566162 422.67032996 309.29125977 415.16625977 C304.91217394 409.20041389 300.43922739 403.31118241 295.9375 397.4375 C290.47804344 390.3110338 285.15285679 383.10808763 279.93115234 375.80615234 C275.09029957 369.06401342 270.06036289 362.47399729 265.01171875 355.88671875 C260.6105482 350.1365304 256.27779075 344.34246346 252 338.5 C247.07447611 331.77494119 242.06651345 325.11946776 237 318.5 C231.34709535 311.11440426 225.78566162 303.67032996 220.29125977 296.16625977 C215.91217394 290.20041389 211.43922739 284.31118241 206.9375 278.4375 C201.47804344 271.3110338 196.15285679 264.10808763 190.93115234 256.80615234 C186.09029957 250.06401342 181.06036289 243.47399729 176.01171875 236.88671875 C171.6105482 231.1365304 167.27779075 225.34246346 163 219.5 C158.07447611 212.77494119 153.06651345 206.11946776 148 199.5 C142.34709535 192.11440426 136.78566162 184.67032996 131.29125977 177.16625977 C126.91217394 171.20041389 122.43922739 165.31118241 117.9375 159.4375 C112.47804344 152.3110338 107.15285679 145.10808763 101.93115234 137.80615234 C97.09029957 131.06401342 92.06036289 124.47399729 87.01171875 117.88671875 C82.6105482 112.1365304 78.27779075 106.34246346 74 100.5 C69.07447611 93.77494119 64.06651345 87.11946776 59 80.5 C53.34709535 73.11440426 47.78566162 65.67032996 42.29125977 58.16625977 C37.91217193 52.20041116 33.4391152 46.31127102 28.9375 40.4375 C22.26131531 31.7195851 15.78218923 22.87732333 9.39697266 13.94482422 C6.72838243 10.22969145 4.00961931 6.55117502 1.29296875 2.87109375 C0 1 0 1 0 0 Z " fill="#000000" transform="translate(727,677)"/>
</svg>
