<?xml version="1.0" encoding="UTF-8"?>
<svg version="1.1" xmlns="http://www.w3.org/2000/svg" width="736" height="736">
<path d="M0 0 C242.88 0 485.76 0 736 0 C736 242.88 736 485.76 736 736 C493.12 736 250.24 736 0 736 C0 493.12 0 250.24 0 0 Z " fill="#FEFEFE" transform="translate(0,0)"/>
<path d="M0 0 C6.77066733 -0.09364053 13.53490947 -0.06178731 20.30517578 0.04589844 C22.26970703 0.07103516 22.26970703 0.07103516 24.27392578 0.09667969 C43.15996405 0.81517027 63.31058598 4.27747147 81.30517578 10.04589844 C82.26423828 10.3447998 83.22330078 10.64370117 84.21142578 10.95166016 C99.38228655 15.70384199 114.04792522 20.99538296 128.30517578 28.04589844 C129.11422363 28.44421875 129.92327148 28.84253906 130.75683594 29.25292969 C141.81905165 34.7545645 152.26333603 40.84902669 162.30517578 48.04589844 C162.9505127 48.50722168 163.59584961 48.96854492 164.26074219 49.44384766 C182.99104259 62.93752345 200.98963811 78.2506111 215.27783203 96.48339844 C216.87389498 98.50077279 218.50566967 100.43761375 220.19580078 102.37402344 C234.39270718 118.86333555 245.06544833 138.44527579 254.30517578 158.04589844 C254.69415039 158.86324463 255.083125 159.68059082 255.48388672 160.52270508 C282.82207203 219.11431696 286.99496022 291.95425647 265.30517578 353.04589844 C265.02544922 353.97144531 264.74572266 354.89699219 264.45751953 355.85058594 C253.85803461 390.65633642 233.78971193 422.97804942 209.42626953 449.70605469 C207.49731244 451.83394659 205.61481226 453.99310703 203.74267578 456.17089844 C197.77236502 463.00786722 191.26595713 469.22843383 184.30517578 475.04589844 C183.80163574 475.4685498 183.2980957 475.89120117 182.77929688 476.32666016 C162.2923227 493.42194822 139.64098892 507.1775274 115.30517578 518.04589844 C114.26224365 518.51938721 114.26224365 518.51938721 113.19824219 519.00244141 C96.49095226 526.5301667 78.88562929 531.35353636 60.93017578 534.85839844 C59.43659546 535.15061279 59.43659546 535.15061279 57.9128418 535.44873047 C42.41055702 538.30670062 27.1472843 539.35855251 11.3996582 539.25170898 C8.60960763 539.23334533 5.81989027 539.23120114 3.02978516 539.23144531 C-11.75954438 539.20455027 -26.15130053 538.69224943 -40.69482422 535.73339844 C-41.82637939 535.5075708 -42.95793457 535.28174316 -44.1237793 535.04907227 C-67.62789845 530.27877647 -92.81622174 523.31545668 -113.56713867 510.92822266 C-118.26801078 508.9788306 -122.42126637 510.03766737 -126.96435547 511.88964844 C-127.99818359 512.3039209 -129.03201172 512.71819336 -130.09716797 513.14501953 C-131.22251953 513.60730957 -132.34787109 514.06959961 -133.50732422 514.54589844 C-135.3452339 515.2850902 -137.18317093 516.02421564 -139.02182007 516.76156616 C-140.35957141 517.29844962 -141.69681657 517.83659571 -143.03359985 518.37588501 C-148.75212567 520.68029678 -154.49149778 522.92892077 -160.23779297 525.16308594 C-161.59515312 525.69092682 -161.59515312 525.69092682 -162.97993469 526.22943115 C-166.60716213 527.63927126 -170.23478288 529.04809756 -173.86245728 530.45678711 C-182.66923202 533.87896788 -191.45708154 537.32169993 -200.16455078 540.99121094 C-203.85300853 542.52866148 -207.57702376 543.95946217 -211.31982422 545.35839844 C-212.01205078 545.62201172 -212.70427734 545.885625 -213.41748047 546.15722656 C-218.45066837 548.04589844 -218.45066837 548.04589844 -220.69482422 548.04589844 C-219.28412559 540.35078585 -217.3844974 532.83915406 -215.31982422 525.29589844 C-215.00601807 524.14065674 -214.69221191 522.98541504 -214.36889648 521.79516602 C-212.20731085 513.85965799 -209.98452508 505.94536643 -207.69482422 498.04589844 C-207.25135428 496.49273028 -206.80871251 494.93932552 -206.36669922 493.38574219 C-206.12580566 492.54003662 -205.88491211 491.69433105 -205.63671875 490.82299805 C-205.13371505 489.05467145 -204.63208755 487.28595282 -204.13183594 485.5168457 C-202.71504576 480.52943998 -201.24752641 475.56256338 -199.71826172 470.60839844 C-199.39188721 469.5357373 -199.0655127 468.46307617 -198.72924805 467.35791016 C-198.09489718 465.2778257 -197.44938925 463.20110173 -196.79125977 461.12841797 C-195.17208707 455.77822622 -194.02770976 451.57480969 -195.69482422 446.04589844 C-197.26672104 443.75843376 -197.26672104 443.75843376 -199.44482422 441.79589844 C-206.58653728 434.32491721 -212.02924394 425.65537609 -217.69482422 417.04589844 C-218.15034668 416.36221191 -218.60586914 415.67852539 -219.07519531 414.97412109 C-229.18516423 399.74207463 -237.64163121 383.30695663 -243.69482422 366.04589844 C-244.17580328 364.7664635 -244.65905137 363.48788025 -245.14404297 362.20996094 C-249.73147069 349.98928357 -253.18498658 337.6182563 -255.94482422 324.85839844 C-256.19079346 323.73208008 -256.4367627 322.60576172 -256.69018555 321.4453125 C-259.98137505 305.72843511 -261.04449272 290.61101136 -261.01049805 274.59448242 C-261.00735357 271.51216689 -261.03083404 268.43082956 -261.05615234 265.34863281 C-261.09981007 251.37008421 -259.87272888 237.84788801 -257.69482422 224.04589844 C-257.57479034 223.27960114 -257.45475647 222.51330383 -257.33108521 221.7237854 C-250.75317462 180.33149398 -232.43351471 139.97521219 -206.69482422 107.04589844 C-205.98712891 106.12679687 -205.27943359 105.20769531 -204.55029297 104.26074219 C-199.86224759 98.27816751 -194.82603147 92.64884571 -189.69482422 87.04589844 C-188.78254401 86.02970859 -187.87111649 85.01275274 -186.96044922 83.99511719 C-181.83032198 78.28687228 -176.59367213 72.96664678 -170.69482422 68.04589844 C-169.60839329 67.10004019 -168.52393493 66.15191381 -167.44091797 65.20214844 C-160.77858875 59.37876568 -154.08193994 53.93809989 -146.69482422 49.04589844 C-145.58833768 48.28304968 -144.48294446 47.51861363 -143.37841797 46.75292969 C-124.8966008 34.04371415 -104.84519385 23.55633897 -83.69482422 16.04589844 C-82.72005127 15.69446777 -82.72005127 15.69446777 -81.72558594 15.3359375 C-55.5434927 5.9603707 -27.82617162 0.47393733 0 0 Z " fill="#000000" transform="translate(351.69482421875,76.9541015625)"/>
<path d="M0 0 C0.65548828 0.10654907 1.31097656 0.21309814 1.98632812 0.32287598 C20.50887081 3.3440834 38.30165754 7.70446094 56 14 C56.74169434 14.25749023 57.48338867 14.51498047 58.24755859 14.78027344 C62.88532937 16.39447009 67.45126576 18.15062787 72 20 C72.83644043 20.33692871 73.67288086 20.67385742 74.53466797 21.02099609 C104.0666342 33.03462309 131.36514999 49.79388707 156 70 C156.91652344 70.73089844 157.83304688 71.46179688 158.77734375 72.21484375 C163.84288534 76.27978453 168.5913795 80.44445281 173.109375 85.109375 C174.97666758 86.97666758 176.91864278 88.67407305 178.9375 90.375 C182.83610554 93.73508221 186.2103516 97.43112605 189.6015625 101.296875 C191.20880932 103.10829975 192.85034546 104.88983519 194.5234375 106.640625 C211.47621671 124.43855743 224.9325546 145.67297853 237 167 C237.37479492 167.65629395 237.74958984 168.31258789 238.13574219 168.98876953 C248.65319336 187.54979656 256.89063132 207.57194729 263 228 C263.21317871 228.69899414 263.42635742 229.39798828 263.64599609 230.11816406 C289.4331968 315.40081575 277.90037546 406.02208538 236.1953125 484.17578125 C226.57464351 501.88798735 215.08756714 518.6694721 202 534 C201.01916658 535.1663601 200.0387212 536.33304659 199.05859375 537.5 C193.61923701 543.94442738 188.0846325 550.15090166 182 556 C179.54996881 558.43430065 177.11591495 560.88052452 174.7109375 563.359375 C168.81280274 569.39559318 162.61597433 574.77039695 156 580 C154.98679687 580.83015625 153.97359375 581.6603125 152.9296875 582.515625 C123.69035508 606.30534853 90.3722559 623.4194369 55 636 C53.81591553 636.4328833 53.81591553 636.4328833 52.60791016 636.87451172 C40.04049974 641.46842283 27.1837203 644.46310777 14.12280273 647.31738281 C12.4143911 647.69082656 10.7068794 648.06894068 9.00457764 648.46931458 C-9.65779817 652.79758377 -28.51667634 653.46401319 -47.60205078 653.33618164 C-51.3924668 653.31239037 -55.18218325 653.31567732 -58.97265625 653.32226562 C-72.09950348 653.3085088 -85.01681701 653.02702252 -98 651 C-99.05175415 650.83641495 -99.05175415 650.83641495 -100.12475586 650.66952515 C-105.20706415 649.85745191 -110.26148508 648.92426405 -115.3125 647.9375 C-116.0774881 647.78960022 -116.8424762 647.64170044 -117.63064575 647.48931885 C-136.65727085 643.77156582 -155.17883263 638.48271011 -173.02954102 630.84228516 C-178.02180641 629.42670896 -182.12034507 630.88047064 -186.828125 632.70703125 C-187.71113281 633.04669922 -188.59414062 633.38636719 -189.50390625 633.73632812 C-190.41011719 634.09146484 -191.31632813 634.44660156 -192.25 634.8125 C-193.14074219 635.15603516 -194.03148437 635.49957031 -194.94921875 635.85351562 C-199.15992124 637.48218357 -203.35814003 639.13993093 -207.546875 640.82421875 C-216.13889145 644.27168498 -224.78308136 647.5881776 -233.4140625 650.93652344 C-243.04390413 654.6731843 -252.65794616 658.44098438 -262.23706055 662.30615234 C-272.72100459 666.52104991 -283.26061693 670.58363982 -293.8125 674.625 C-308.44003463 680.22624842 -308.44003463 680.22624842 -323 686 C-327.89243394 687.96157062 -332.7893837 689.91169891 -337.6887207 691.85595703 C-339.20118866 692.45726608 -340.71289664 693.06048985 -342.22387695 693.66552734 C-344.42731328 694.54747056 -346.63326484 695.42282933 -348.83984375 696.296875 C-349.85231422 696.70459137 -349.85231422 696.70459137 -350.88523865 697.12054443 C-353.754593 698.25041035 -355.88498294 699 -359 699 C-358.12950829 693.13668803 -356.77395831 687.39551446 -355.4375 681.625 C-355.17791504 680.50246826 -354.91833008 679.37993652 -354.65087891 678.22338867 C-352.47661866 668.89849666 -350.19744043 659.60143663 -347.875 650.3125 C-347.71127899 649.65670959 -347.54755798 649.00091919 -347.37887573 648.32525635 C-345.60374979 641.22586601 -343.78177196 634.14133947 -341.8828125 627.07421875 C-340.49485111 621.89891259 -339.18923964 616.72415983 -338 611.5 C-336.76358495 606.13729504 -335.44070224 600.81258951 -334 595.5 C-332.22502243 588.94783672 -330.64470921 582.36871196 -329.125 575.75390625 C-327.01022597 566.70073776 -324.72146659 557.6866604 -322.34088135 548.69999695 C-321.60942447 545.93397588 -320.88931151 543.16505938 -320.17041016 540.39575195 C-319.80128649 538.98584493 -319.42677865 537.57733838 -319.04736328 536.17016602 C-318.48851813 534.09218318 -317.9494989 532.00990062 -317.4140625 529.92578125 C-316.93380615 528.10687378 -316.93380615 528.10687378 -316.44384766 526.2512207 C-315.81525053 521.64669492 -317.11158166 519.30134517 -319.6640625 515.5625 C-320.31117188 514.716875 -320.95828125 513.87125 -321.625 513 C-349.00498766 476.04934999 -365.84233883 431.71044993 -375 387 C-375.15742676 386.25331055 -375.31485352 385.50662109 -375.47705078 384.73730469 C-379.70861239 364.63380907 -380.40647159 344.55452337 -380.375 324.0625 C-380.37512085 322.85099274 -380.3752417 321.63948547 -380.37536621 320.39126587 C-380.34962551 302.26307645 -379.6646094 284.8031543 -376 267 C-375.82919922 266.12859375 -375.65839844 265.2571875 -375.48242188 264.359375 C-374.59076295 259.85562324 -373.59302645 255.39197154 -372.47802734 250.93847656 C-372.0165448 249.06709179 -371.59537672 247.18590699 -371.17578125 245.3046875 C-362.78144048 208.9165497 -347.05831543 173.79213136 -326 143 C-325.52981445 142.30455078 -325.05962891 141.60910156 -324.57519531 140.89257812 C-317.00559335 129.73036209 -308.75590691 119.25300189 -300 109 C-299.25621094 108.1234375 -298.51242187 107.246875 -297.74609375 106.34375 C-287.64108689 94.79517073 -276.65031928 83.42773766 -264.53515625 73.98046875 C-261.79787637 71.84210064 -259.19111573 69.58283431 -256.5625 67.3125 C-228.46177181 43.94947502 -194.70931482 25.44343223 -160 14 C-158.289029 13.41416034 -156.57809287 12.82821882 -154.8671875 12.2421875 C-105.06773166 -4.50397142 -51.7632626 -8.54484008 0 0 Z M-202.23242188 101.75878906 C-203.99471872 102.99629143 -205.76960607 104.21381609 -207.546875 105.4296875 C-216.19119517 111.40445581 -224.15930747 118.01308691 -232 125 C-232.54994629 125.48678223 -233.09989258 125.97356445 -233.66650391 126.47509766 C-239.15186684 131.34423816 -244.47543625 136.24192849 -249.1875 141.8828125 C-250.53747121 143.45971853 -251.9429252 144.98945111 -253.375 146.4921875 C-267.22579008 161.0274643 -278.11937581 177.58508353 -288 195 C-288.40557129 195.7027002 -288.81114258 196.40540039 -289.22900391 197.12939453 C-303.82491987 222.56065322 -313.66858123 251.67610369 -318.125 280.625 C-318.29386719 281.67945313 -318.46273437 282.73390625 -318.63671875 283.8203125 C-320.20971461 293.82803421 -321.15709408 303.63998089 -321.203125 313.7734375 C-321.20882507 314.77726471 -321.21452515 315.78109192 -321.22039795 316.81533813 C-321.22978875 318.93140632 -321.23635817 321.04748874 -321.24023438 323.16357422 C-321.24986918 326.33198015 -321.28092109 329.49971638 -321.3125 332.66796875 C-321.38060139 345.73386275 -320.37676806 358.15678617 -318 371 C-317.70971924 372.67570068 -317.70971924 372.67570068 -317.41357422 374.38525391 C-315.32698886 386.05874699 -312.45489522 397.47173125 -309 408.8125 C-308.6800708 409.86711426 -308.3601416 410.92172852 -308.03051758 412.00830078 C-305.84699776 418.94159574 -303.1275565 425.44463685 -300 432 C-299.15184537 433.83570731 -298.30419307 435.6716468 -297.45703125 437.5078125 C-287.0301505 459.77050602 -274.42916647 483.85276182 -256.6484375 501.30859375 C-254.16737393 505.35942977 -255.0040762 508.49618113 -256 513 C-256.82162817 516.26968981 -257.79038959 519.47542223 -258.8125 522.6875 C-259.35878643 524.45420662 -259.90435672 526.22113482 -260.44921875 527.98828125 C-260.84826416 529.2714624 -260.84826416 529.2714624 -261.25537109 530.58056641 C-262.60114004 534.95321238 -263.83661228 539.35563769 -265.08203125 543.7578125 C-265.67685791 545.85868964 -266.27802724 547.95778546 -266.88671875 550.0546875 C-269.52109157 559.14716417 -271.9720032 568.28607265 -274.41748047 577.4309082 C-276.31254561 584.50214664 -278.27303897 591.54459471 -280.37109375 598.55859375 C-281.12472813 601.0640083 -281.12472813 601.0640083 -281 604 C-273.84865164 602.08175597 -267.04031979 599.49916802 -260.19921875 596.6953125 C-256.87212371 595.33785772 -253.52375832 594.04264881 -250.16796875 592.7578125 C-242.45343822 589.80095431 -234.77138634 586.76364779 -227.08911133 583.72415161 C-224.58024933 582.73230846 -222.07052351 581.74268087 -219.56054688 580.75366211 C-212.2360624 577.86658786 -204.91478543 574.97400361 -197.6171875 572.01953125 C-196.56321777 571.59639648 -195.50924805 571.17326172 -194.42333984 570.73730469 C-192.53745738 569.97942374 -190.6546944 569.21371106 -188.77587891 568.43847656 C-179.47237563 564.71998886 -179.47237563 564.71998886 -174.18994141 566.66723633 C-172.10998985 567.58899198 -170.08928595 568.59173658 -168.0625 569.625 C-166.54323912 570.36780812 -165.02237326 571.10734169 -163.5 571.84375 C-162.74203125 572.21113281 -161.9840625 572.57851563 -161.203125 572.95703125 C-155.59457648 575.61214198 -149.81627459 577.84419474 -144 580 C-143.34547852 580.24459961 -142.69095703 580.48919922 -142.01660156 580.74121094 C-112.7665677 591.50869588 -82.96922349 595.22708629 -52 595.25 C-51.0494574 595.25100708 -50.09891479 595.25201416 -49.11956787 595.25305176 C-34.84942373 595.24284486 -21.05880827 594.59633315 -7 592 C-5.26989578 591.71651621 -3.53941852 591.43530068 -1.80859375 591.15625 C45.99837995 583.12239956 91.9921272 560.30215068 127.5078125 527.30859375 C129.69709164 525.28059379 131.92299995 523.31788817 134.1875 521.375 C141.01244968 515.42754385 147.17738555 508.92183699 153 502 C153.44972168 501.47470703 153.89944336 500.94941406 154.36279297 500.40820312 C175.21878905 475.96705524 191.62407525 447.34385177 202.28222656 417.02148438 C202.9962814 415.01047278 203.74268282 413.01365438 204.4921875 411.015625 C223.47724989 358.92651207 223.19238097 297.46362507 206 245 C205.58277025 243.68507437 205.16610503 242.36996948 204.75 241.0546875 C202.22972533 233.19028718 199.35639247 225.54494836 196 218 C195.73912598 217.40058594 195.47825195 216.80117187 195.20947266 216.18359375 C187.23954633 197.97187519 177.0005023 180.83725259 165 165 C164.38769531 164.17628906 163.77539062 163.35257812 163.14453125 162.50390625 C159.40414398 157.56522558 155.35058806 152.96196882 151.171875 148.390625 C149.32166444 146.3540623 147.53012367 144.28487343 145.75 142.1875 C137.32757292 132.55629866 128.1025683 123.84501114 118 116 C116.99453125 115.20078125 115.9890625 114.4015625 114.953125 113.578125 C80.61642303 86.4612876 39.11471366 67.5541525 -4 60 C-4.88010742 59.84450684 -5.76021484 59.68901367 -6.66699219 59.52880859 C-17.73763114 57.62085508 -28.76071451 56.295641 -40 56 C-40.83305664 55.97808594 -41.66611328 55.95617187 -42.52441406 55.93359375 C-98.88551818 54.71145199 -155.72624981 69.06152978 -202.23242188 101.75878906 Z " fill="#FCFCFC" transform="translate(412,21)"/>
<path d="M0 0 C0.91072266 0.00193359 1.82144531 0.00386719 2.75976562 0.00585938 C3.71173828 0.01810547 4.66371094 0.03035156 5.64453125 0.04296875 C6.54623047 0.04361328 7.44792969 0.04425781 8.37695312 0.04492188 C16.75789667 0.09733917 25.09915612 0.65563745 33.45703125 1.23046875 C33.67507919 1.82276779 33.89312714 2.41506683 34.11778259 3.02531433 C36.43199324 9.30815915 38.75407383 15.58805766 41.08032227 21.86645508 C41.94228414 24.19581778 42.80237555 26.52587367 43.66040039 28.85668945 C48.93494579 43.18036715 54.47698012 57.31366118 60.61238098 71.29095459 C63.30694276 77.47829735 64.86923684 82.44828396 63.45703125 89.23046875 C61.40042877 92.79383654 58.81970682 95.68157003 55.97705078 98.64404297 C54.27481068 100.42065013 52.61374112 102.23132209 50.953125 104.046875 C48.57959831 106.62851754 46.19564092 109.19912262 43.7890625 111.75 C43.23814941 112.3373291 42.68723633 112.9246582 42.11962891 113.52978516 C41.01617229 114.6585192 39.87419815 115.75089587 38.69677734 116.80224609 C36.15505796 119.09508413 34.59166161 120.70072756 33.73828125 124.05859375 C34.79749785 128.73296268 37.22272825 132.09530865 39.95703125 135.98046875 C40.78352173 137.18352661 40.78352173 137.18352661 41.62670898 138.41088867 C45.65950289 144.22869939 49.8737434 149.83373477 54.45703125 155.23046875 C55.2975 156.24238281 56.13796875 157.25429688 57.00390625 158.296875 C69.50560869 173.2993653 82.64781245 188.12004601 98 200.265625 C100.11386528 201.95604509 102.09632814 203.70696388 104.08203125 205.54296875 C110.68674485 211.39403246 118.16380148 216.28584876 125.45703125 221.23046875 C126.15054688 221.71870117 126.8440625 222.20693359 127.55859375 222.70996094 C130.63840518 224.79000468 132.94412897 226.12852151 136.62109375 226.859375 C140.57095976 225.98344053 142.11471979 224.1283242 144.83203125 221.16796875 C145.79492439 220.14659505 146.75977496 219.12706321 147.7265625 218.109375 C148.62761719 217.15933594 149.52867187 216.20929688 150.45703125 215.23046875 C152.40366641 213.433301 154.39514613 211.71160729 156.41015625 209.9921875 C159.7547458 207.11354268 162.99765531 204.12198747 166.2578125 201.1484375 C170.5188299 197.43234595 173.02101452 196.69738227 178.51660156 196.82421875 C183.69474394 197.53963131 188.2241188 199.71624213 192.95007324 201.87390137 C196.27835758 203.38875972 199.63572372 204.83534406 202.99609375 206.27734375 C203.72505859 206.59044495 204.45402344 206.90354614 205.20507812 207.22613525 C215.38581515 211.5424111 225.80531643 215.23767572 236.20703125 218.98046875 C237.19257996 219.33584717 238.17812866 219.69122559 239.19354248 220.05737305 C249.29685696 223.72536798 249.29685696 223.72536798 259.45703125 227.23046875 C259.97076073 232.27631428 260.41723772 237.32237556 260.8059082 242.37939453 C260.94668642 244.09351006 261.10481699 245.80630179 261.28149414 247.51708984 C262.91401764 263.52424005 262.91401764 263.52424005 257.375 270.984375 C255.7751455 272.76925304 254.13865902 274.5224137 252.45703125 276.23046875 C251.36191383 277.53094927 250.27238542 278.83618151 249.19140625 280.1484375 C238.09268775 292.52609565 224.33846855 303.92782515 207.08911133 305.43774414 C204.47893467 305.53585953 201.88151471 305.55931846 199.26953125 305.54296875 C198.31119385 305.5373291 197.35285645 305.53168945 196.36547852 305.52587891 C178.73283722 305.23395254 162.17427717 301.6851006 145.45703125 296.23046875 C144.76335449 296.00520508 144.06967773 295.77994141 143.35498047 295.54785156 C96.02996746 279.80813806 46.83559881 244.29079674 15.7578125 205.06640625 C13.91249769 202.79187561 12.02423693 200.60432817 10.078125 198.41796875 C6.5420649 194.39526884 3.33080604 190.20351084 0.20703125 185.85546875 C-0.627677 184.69470825 -0.627677 184.69470825 -1.47924805 183.51049805 C-7.27679531 175.34576333 -12.53175343 166.89628317 -17.54296875 158.23046875 C-17.91260742 157.5957666 -18.28224609 156.96106445 -18.66308594 156.30712891 C-27.88657033 140.30417096 -33.96594656 123.06712141 -38.94848633 105.33666992 C-39.49500426 103.4004029 -40.06662896 101.47126862 -40.640625 99.54296875 C-45.8001827 80.60225478 -48.68345019 53.48663944 -39.29296875 35.48046875 C-36.41464058 30.77203939 -33.06149965 26.47340307 -29.54296875 22.23046875 C-28.970625 21.51117188 -28.39828125 20.791875 -27.80859375 20.05078125 C-21.7840444 12.81617285 -9.83736161 -0.05026605 0 0 Z " fill="#FDFDFD" transform="translate(264.54296875,200.76953125)"/>
<path d="M0 0 C0.65548828 0.10654907 1.31097656 0.21309814 1.98632812 0.32287598 C20.50887081 3.3440834 38.30165754 7.70446094 56 14 C56.74169434 14.25749023 57.48338867 14.51498047 58.24755859 14.78027344 C62.88532937 16.39447009 67.45126576 18.15062787 72 20 C72.83644043 20.33692871 73.67288086 20.67385742 74.53466797 21.02099609 C104.0666342 33.03462309 131.36514999 49.79388707 156 70 C156.91652344 70.73089844 157.83304688 71.46179688 158.77734375 72.21484375 C163.84288534 76.27978453 168.5913795 80.44445281 173.109375 85.109375 C174.97666758 86.97666758 176.91864278 88.67407305 178.9375 90.375 C182.83610554 93.73508221 186.2103516 97.43112605 189.6015625 101.296875 C191.20880932 103.10829975 192.85034546 104.88983519 194.5234375 106.640625 C211.47621671 124.43855743 224.9325546 145.67297853 237 167 C237.37479492 167.65629395 237.74958984 168.31258789 238.13574219 168.98876953 C248.65319336 187.54979656 256.89063132 207.57194729 263 228 C263.21317871 228.69899414 263.42635742 229.39798828 263.64599609 230.11816406 C289.4331968 315.40081575 277.90037546 406.02208538 236.1953125 484.17578125 C226.57464351 501.88798735 215.08756714 518.6694721 202 534 C201.01916658 535.1663601 200.0387212 536.33304659 199.05859375 537.5 C193.61923701 543.94442738 188.0846325 550.15090166 182 556 C179.54996881 558.43430065 177.11591495 560.88052452 174.7109375 563.359375 C168.81280274 569.39559318 162.61597433 574.77039695 156 580 C154.98679687 580.83015625 153.97359375 581.6603125 152.9296875 582.515625 C123.69035508 606.30534853 90.3722559 623.4194369 55 636 C53.81591553 636.4328833 53.81591553 636.4328833 52.60791016 636.87451172 C40.04049974 641.46842283 27.1837203 644.46310777 14.12280273 647.31738281 C12.4143911 647.69082656 10.7068794 648.06894068 9.00457764 648.46931458 C-9.65779817 652.79758377 -28.51667634 653.46401319 -47.60205078 653.33618164 C-51.3924668 653.31239037 -55.18218325 653.31567732 -58.97265625 653.32226562 C-72.09950348 653.3085088 -85.01681701 653.02702252 -98 651 C-99.05175415 650.83641495 -99.05175415 650.83641495 -100.12475586 650.66952515 C-105.20706415 649.85745191 -110.26148508 648.92426405 -115.3125 647.9375 C-116.0774881 647.78960022 -116.8424762 647.64170044 -117.63064575 647.48931885 C-136.65727085 643.77156582 -155.17883263 638.48271011 -173.02954102 630.84228516 C-178.02180641 629.42670896 -182.12034507 630.88047064 -186.828125 632.70703125 C-187.71113281 633.04669922 -188.59414062 633.38636719 -189.50390625 633.73632812 C-190.41011719 634.09146484 -191.31632813 634.44660156 -192.25 634.8125 C-193.14074219 635.15603516 -194.03148437 635.49957031 -194.94921875 635.85351562 C-199.15992124 637.48218357 -203.35814003 639.13993093 -207.546875 640.82421875 C-216.13889145 644.27168498 -224.78308136 647.5881776 -233.4140625 650.93652344 C-243.04390413 654.6731843 -252.65794616 658.44098438 -262.23706055 662.30615234 C-272.72100459 666.52104991 -283.26061693 670.58363982 -293.8125 674.625 C-308.44003463 680.22624842 -308.44003463 680.22624842 -323 686 C-327.89243394 687.96157062 -332.7893837 689.91169891 -337.6887207 691.85595703 C-339.20118866 692.45726608 -340.71289664 693.06048985 -342.22387695 693.66552734 C-344.42731328 694.54747056 -346.63326484 695.42282933 -348.83984375 696.296875 C-349.85231422 696.70459137 -349.85231422 696.70459137 -350.88523865 697.12054443 C-353.754593 698.25041035 -355.88498294 699 -359 699 C-358.12950829 693.13668803 -356.77395831 687.39551446 -355.4375 681.625 C-355.17791504 680.50246826 -354.91833008 679.37993652 -354.65087891 678.22338867 C-352.47661866 668.89849666 -350.19744043 659.60143663 -347.875 650.3125 C-347.71127899 649.65670959 -347.54755798 649.00091919 -347.37887573 648.32525635 C-345.60374979 641.22586601 -343.78177196 634.14133947 -341.8828125 627.07421875 C-340.49485111 621.89891259 -339.18923964 616.72415983 -338 611.5 C-336.76358495 606.13729504 -335.44070224 600.81258951 -334 595.5 C-332.22502243 588.94783672 -330.64470921 582.36871196 -329.125 575.75390625 C-327.01022597 566.70073776 -324.72146659 557.6866604 -322.34088135 548.69999695 C-321.60942447 545.93397588 -320.88931151 543.16505938 -320.17041016 540.39575195 C-319.80128649 538.98584493 -319.42677865 537.57733838 -319.04736328 536.17016602 C-318.48851813 534.09218318 -317.9494989 532.00990062 -317.4140625 529.92578125 C-316.93380615 528.10687378 -316.93380615 528.10687378 -316.44384766 526.2512207 C-315.81525053 521.64669492 -317.11158166 519.30134517 -319.6640625 515.5625 C-320.31117188 514.716875 -320.95828125 513.87125 -321.625 513 C-349.00498766 476.04934999 -365.84233883 431.71044993 -375 387 C-375.15742676 386.25331055 -375.31485352 385.50662109 -375.47705078 384.73730469 C-379.70861239 364.63380907 -380.40647159 344.55452337 -380.375 324.0625 C-380.37512085 322.85099274 -380.3752417 321.63948547 -380.37536621 320.39126587 C-380.34962551 302.26307645 -379.6646094 284.8031543 -376 267 C-375.82919922 266.12859375 -375.65839844 265.2571875 -375.48242188 264.359375 C-374.59076295 259.85562324 -373.59302645 255.39197154 -372.47802734 250.93847656 C-372.0165448 249.06709179 -371.59537672 247.18590699 -371.17578125 245.3046875 C-362.78144048 208.9165497 -347.05831543 173.79213136 -326 143 C-325.52981445 142.30455078 -325.05962891 141.60910156 -324.57519531 140.89257812 C-317.00559335 129.73036209 -308.75590691 119.25300189 -300 109 C-299.25621094 108.1234375 -298.51242187 107.246875 -297.74609375 106.34375 C-287.64108689 94.79517073 -276.65031928 83.42773766 -264.53515625 73.98046875 C-261.79787637 71.84210064 -259.19111573 69.58283431 -256.5625 67.3125 C-228.46177181 43.94947502 -194.70931482 25.44343223 -160 14 C-158.289029 13.41416034 -156.57809287 12.82821882 -154.8671875 12.2421875 C-105.06773166 -4.50397142 -51.7632626 -8.54484008 0 0 Z M-108 15 C-109.08845215 15.20367187 -110.1769043 15.40734375 -111.29833984 15.6171875 C-137.88871892 20.61083064 -163.60115448 29.33624595 -188 41 C-188.93328125 41.44537109 -189.8665625 41.89074219 -190.828125 42.34960938 C-211.24505373 52.23731598 -230.45406595 64.60946554 -248 79 C-248.52561523 79.43086914 -249.05123047 79.86173828 -249.59277344 80.30566406 C-263.64284622 91.87680157 -277.19494013 104.11591137 -289 118 C-290.23363281 119.41732422 -290.23363281 119.41732422 -291.4921875 120.86328125 C-317.97413833 151.45129361 -339.21672813 188.2479721 -351 227 C-351.49133072 228.48812633 -351.98634406 229.97504012 -352.484375 231.4609375 C-356.15205868 242.51065988 -358.8856657 253.55517336 -361 265 C-361.14034668 265.74604492 -361.28069336 266.49208984 -361.42529297 267.26074219 C-364.93808792 286.16942644 -366.41698902 305.02835774 -366.375 324.25 C-366.37445618 325.19955566 -366.37391235 326.14911133 -366.37335205 327.12744141 C-366.28874824 359.54491481 -361.85856004 392.33491696 -351 423 C-350.6275415 424.07773682 -350.6275415 424.07773682 -350.24755859 425.17724609 C-339.27874945 456.82242819 -324.10267015 489.43739316 -302.20703125 515.1015625 C-299.24998059 519.75245771 -301.69722361 526.60842183 -302.79296875 531.64453125 C-304.24064598 537.70921024 -305.91116597 543.71424221 -307.62229919 549.70913696 C-311.41967797 563.08979134 -314.64864516 576.61249991 -317.9375 590.125 C-319.13308283 595.02368975 -320.3301932 599.92200567 -321.52734375 604.8203125 C-321.81814819 606.01158752 -322.10895264 607.20286255 -322.40856934 608.43023682 C-324.58688645 617.34323764 -326.79957868 626.24728191 -329.03929138 635.14505005 C-330.78222667 642.07950295 -332.43471188 649.03208351 -334.0546875 655.99609375 C-335.62071841 662.68414298 -337.31511142 669.34110525 -339 676 C-334.73765671 675.31523341 -330.90373204 673.89830882 -326.921875 672.2890625 C-326.21925034 672.00939636 -325.51662567 671.72973022 -324.79270935 671.44158936 C-323.25623836 670.82973575 -321.72049554 670.21605117 -320.18539429 669.60076904 C-315.93080097 667.89611675 -311.67030882 666.20632555 -307.41015625 664.515625 C-306.04368706 663.9728743 -306.04368706 663.9728743 -304.64961243 663.41915894 C-293.52100819 659.00565956 -282.35349423 654.69279488 -271.1875 650.375 C-255.56639461 644.33132164 -239.95779372 638.25872098 -224.38354492 632.09521484 C-218.68532407 629.8411511 -212.9822494 627.60470532 -207.2578125 625.41796875 C-203.34745375 623.92038455 -199.46343072 622.38018999 -195.6015625 620.76171875 C-194.77269531 620.41689453 -193.94382813 620.07207031 -193.08984375 619.71679688 C-191.41969168 619.01935619 -189.75309649 618.31334726 -188.08984375 617.59960938 C-179.06234891 613.87948788 -173.24971735 614.92425402 -164.4375 618.5625 C-139.12006441 628.56326613 -113.8089551 634.75551113 -86.74633789 637.69042969 C-84.59141855 637.93333463 -82.44144178 638.22014288 -80.29418945 638.5234375 C-75.55265737 639.11714891 -70.84419517 639.17931457 -66.0703125 639.203125 C-65.13102402 639.21018463 -64.19173553 639.21724426 -63.22398376 639.22451782 C-43.2977284 639.34010137 -23.69183366 639.39024664 -4 636 C-2.15994385 635.69400879 -2.15994385 635.69400879 -0.28271484 635.38183594 C16.572339 632.54755533 32.89370798 628.78601034 49 623 C49.95390625 622.66629395 50.9078125 622.33258789 51.890625 621.98876953 C80.2545037 612.034496 106.63497299 598.6137083 131 581 C131.68223633 580.50854492 132.36447266 580.01708984 133.06738281 579.51074219 C140.87127329 573.85864638 148.3566528 568.06354926 155.375 561.44921875 C157.48785602 559.47784862 159.63026429 557.57923231 161.81640625 555.69140625 C172.49173951 546.3864704 182.30278207 536.16889621 191 525 C191.94904991 523.83757423 192.90106959 522.67756909 193.85546875 521.51953125 C200.82248707 513.02879094 207.13712514 504.28596573 213 495 C213.36657715 494.42378906 213.7331543 493.84757812 214.11083984 493.25390625 C225.76621576 474.80609726 235.14083729 455.38695506 242.85717773 434.99316406 C243.64269953 432.93580513 244.44805221 430.88594286 245.26977539 428.84277344 C248.32768475 421.17576596 250.62785287 413.52028942 252.5625 405.5 C252.85987061 404.2838501 253.15724121 403.0677002 253.46362305 401.81469727 C255.21442828 394.54949975 256.87328415 387.27108396 258.3125 379.9375 C258.45953369 379.20402344 258.60656738 378.47054688 258.75805664 377.71484375 C261.70316378 361.85154313 262.30289062 345.98045356 262.20581055 329.8828125 C262.18743864 326.73950104 262.18530267 323.59648492 262.18554688 320.453125 C262.16055315 305.37538378 261.68669061 290.59110703 259.1875 275.6875 C258.92030151 274.07222412 258.92030151 274.07222412 258.64770508 272.42431641 C250.77805921 225.830741 232.78265071 181.30979645 205 143 C204.24074219 141.94554687 203.48148438 140.89109375 202.69921875 139.8046875 C197.13952626 132.24034567 191.1504113 125.08441453 185 118 C184.30648437 117.19304687 183.61296875 116.38609375 182.8984375 115.5546875 C173.02057252 104.30383742 162.4074518 93.27690337 150.6015625 84.0390625 C147.68281675 81.75139691 144.88060521 79.34781738 142.0625 76.9375 C136.31595578 72.14501525 130.29780995 68.02711717 124 64 C122.93265625 63.29230469 121.8653125 62.58460937 120.765625 61.85546875 C101.21751183 48.9335931 80.09566423 37.85876718 58 30 C56.8759375 29.58234375 55.751875 29.1646875 54.59375 28.734375 C34.43920835 21.33248581 13.24356195 16.1310278 -8 13 C-9.03406982 12.83081055 -10.06813965 12.66162109 -11.13354492 12.48730469 C-24.27693954 10.55346048 -37.42475538 10.60292887 -50.6875 10.625 C-51.91198853 10.62554382 -53.13647705 10.62608765 -54.39807129 10.62664795 C-72.63497348 10.66393186 -90.09016629 11.35216965 -108 15 Z " fill="#060606" transform="translate(412,21)"/>
<path d="M0 0 C0.66 0.33 1.32 0.66 2 1 C0.625 2.5 0.625 2.5 -1 4 C-1.66 4 -2.32 4 -3 4 C-3.33 4.99 -3.66 5.98 -4 7 C-4.99 7 -5.98 7 -7 7 C-7 7.66 -7 8.32 -7 9 C-7.99 8.67 -8.98 8.34 -10 8 C-6.97727468 4.74475735 -3.74281699 2.38179263 0 0 Z " fill="#1B1B1B" transform="translate(205,126)"/>
<path d="M0 0 C0.66 0.66 1.32 1.32 2 2 C0.7315625 2.8353125 0.7315625 2.8353125 -0.5625 3.6875 C-4.10127989 6.04387134 -7.54991268 8.51593713 -11 11 C-11 10.01 -11 9.02 -11 8 C-8.59375 5.95703125 -8.59375 5.95703125 -5.5 3.8125 C-3.96859375 2.73935547 -3.96859375 2.73935547 -2.40625 1.64453125 C-1.6121875 1.10183594 -0.818125 0.55914063 0 0 Z " fill="#232323" transform="translate(555,592)"/>
<path d="M0 0 C0.66 0.33 1.32 0.66 2 1 C2 3 2 3 0.8125 4.3125 C0.214375 4.869375 -0.38375 5.42625 -1 6 C-1.886875 6.886875 -2.77375 7.77375 -3.6875 8.6875 C-4.450625 9.450625 -5.21375 10.21375 -6 11 C-6 7.39426104 -5.18292538 6.58663434 -3 3.8125 C-2.443125 3.09707031 -1.88625 2.38164063 -1.3125 1.64453125 C-0.879375 1.10183594 -0.44625 0.55914063 0 0 Z " fill="#1A1A1A" transform="translate(612,533)"/>
<path d="M0 0 C0.66 0.33 1.32 0.66 2 1 C0.8125 3.5 0.8125 3.5 -1 6 C-3.6875 6.3125 -3.6875 6.3125 -6 6 C-4 4 -2 2 0 0 Z " fill="#E6E6E6" transform="translate(527,558)"/>
</svg>
