<?xml version="1.0" encoding="UTF-8"?>
<svg version="1.1" xmlns="http://www.w3.org/2000/svg" width="480" height="480">
<path d="M0 0 C158.4 0 316.8 0 480 0 C480 158.4 480 316.8 480 480 C321.6 480 163.2 480 0 480 C0 321.6 0 163.2 0 0 Z " fill="#F9F9F9" transform="translate(0,0)"/>
<path d="M0 0 C201.01345024 -1.26406271 201.01345024 -1.26406271 225.36682129 21.71044922 C237.60599778 33.89033133 239.93662157 49.75482297 242.08361816 66.18579102 C242.35723764 68.23776009 242.64898595 70.28733812 242.95178223 72.33520508 C244.40312 82.42706544 245.10655593 92.46326297 245.58605957 102.64135742 C245.62775269 103.50296478 245.6694458 104.36457214 245.71240234 105.25228882 C251.64202494 230.09600396 251.64202494 230.09600396 226.27355957 260.26635742 C216.2269971 270.86825751 203.54670247 276.0245598 189.21105957 277.57885742 C187.71385376 277.75263916 187.71385376 277.75263916 186.18640137 277.92993164 C176.23411661 279.02975396 166.25398925 279.84595339 156.27355957 280.64135742 C155.50612427 280.70388702 154.73868896 280.76641663 153.94799805 280.83084106 C122.03007014 283.39638956 90.04110149 283.20423499 58.04431152 283.20166016 C52.91569423 283.20157977 47.78716794 283.20839317 42.65856934 283.22216797 C1.79905905 283.330146 -38.9551965 282.47745963 -79.76818848 280.49121094 C-80.56392179 280.45301648 -81.35965509 280.41482203 -82.17950153 280.37547016 C-88.4995524 280.05560286 -94.76469048 279.47335625 -101.03894043 278.64135742 C-102.05230469 278.50906738 -103.06566895 278.37677734 -104.10974121 278.24047852 C-120.68582073 275.98920817 -132.51747415 272.01698927 -144.53894043 260.01635742 C-145.12804199 259.43885742 -145.71714355 258.86135742 -146.32409668 258.26635742 C-170.38814858 232.66368327 -164.93951684 173.53565575 -164.85144043 141.64135742 C-164.84981353 140.28268447 -164.8483094 138.92401136 -164.84692383 137.56533813 C-164.69883324 44.19353185 -164.69883324 44.19353185 -142.78894043 20.82885742 C-138.47506046 16.71143498 -133.84933305 13.7036407 -128.53894043 11.01635742 C-127.78870605 10.63608398 -127.03847168 10.25581055 -126.26550293 9.86401367 C-90.68267444 -5.39399531 -37.98666757 0.24473357 0 0 Z " fill="#000000" transform="translate(202.5389404296875,99.983642578125)"/>
<path d="M0 0 C3.68413778 1.47365511 6.96761348 2.97045239 10.4375 4.8359375 C12.01096191 5.68115967 12.01096191 5.68115967 13.61621094 6.54345703 C14.73286133 7.14786621 15.84951172 7.75227539 17 8.375 C18.16047852 9.00132324 19.32095703 9.62764648 20.51660156 10.27294922 C28.51408631 14.60104338 36.4323343 19.05727204 44.30908203 23.60131836 C50.45018424 27.13722881 56.6447082 30.56146892 62.875 33.9375 C70.70505473 38.18321686 78.49460323 42.49427604 86.25 46.875 C87.6419458 47.65991821 87.6419458 47.65991821 89.06201172 48.46069336 C95.09893915 51.88038324 101.06717906 55.4028471 107 59 C104.27042901 61.93600584 101.71023226 63.91376515 98.16796875 65.77734375 C96.74158081 66.53688354 96.74158081 66.53688354 95.28637695 67.31176758 C94.26374756 67.84825928 93.24111816 68.38475098 92.1875 68.9375 C89.99643947 70.10497775 87.80635759 71.27429377 85.6171875 72.4453125 C84.50698242 73.03860352 83.39677734 73.63189453 82.25292969 74.24316406 C77.39996585 76.86414333 72.60434902 79.58182109 67.8125 82.3125 C57.90806952 87.94518868 47.94405709 93.46456491 37.95898438 98.95239258 C31.84488388 102.31479611 25.74322229 105.69672454 19.66796875 109.12890625 C19.08454712 109.45801498 18.50112549 109.78712372 17.90002441 110.12620544 C15.12709234 111.69077859 12.35675888 113.25963915 9.59033203 114.83569336 C8.13216064 115.65952515 8.13216064 115.65952515 6.64453125 116.5 C5.79221924 116.9846875 4.93990723 117.469375 4.06176758 117.96875 C2 119 2 119 0 119 C0 79.73 0 40.46 0 0 Z " fill="#F8F8F8" transform="translate(201,182)"/>
<path d="M0 0 C3.23401498 1.29360599 6.2328399 2.55907114 9.3125 4.125 C10.00988281 4.47820312 10.70726562 4.83140625 11.42578125 5.1953125 C11.94527344 5.46085938 12.46476563 5.72640625 13 6 C12.52949219 6.39832031 12.05898437 6.79664063 11.57421875 7.20703125 C9.68239447 9.3617393 9.33939211 10.89091882 8.8125 13.6875 C8.65394531 14.49574219 8.49539062 15.30398437 8.33203125 16.13671875 C8.22246094 16.75160156 8.11289063 17.36648437 8 18 C5.69 18 3.38 18 1 18 C1.33 51.33 1.66 84.66 2 119 C1.34 119 0.68 119 0 119 C0 79.73 0 40.46 0 0 Z " fill="#D5D5D5" transform="translate(201,182)"/>
<path d="M0 0 C0.33 0 0.66 0 1 0 C1.06993164 0.61818604 1.13986328 1.23637207 1.21191406 1.87329102 C2.899103 16.48700544 5.27878498 30.04618671 10 44 C9.34 44.66 8.68 45.32 8 46 C7.67 45.34 7.34 44.68 7 44 C5.10466658 43.53476937 5.10466658 43.53476937 2.9375 43.375 C0.9884375 43.189375 0.9884375 43.189375 -1 43 C-1.02473355 37.51904631 -1.04287596 32.03812517 -1.05493164 26.55712891 C-1.05995792 24.69286534 -1.06677992 22.8286057 -1.07543945 20.96435547 C-1.08757963 18.28351876 -1.09324539 15.6027342 -1.09765625 12.921875 C-1.10281754 12.08944275 -1.10797882 11.2570105 -1.11329651 10.39935303 C-1.11340981 9.22859222 -1.11340981 9.22859222 -1.11352539 8.03417969 C-1.115746 7.35023132 -1.11796661 6.66628296 -1.12025452 5.96160889 C-0.99213985 3.87178404 -0.56725751 2.01152256 0 0 Z " fill="#F4F4F4" transform="translate(41,307)"/>
<path d="M0 0 C3.3 0 6.6 0 10 0 C10.33 1.32 10.66 2.64 11 4 C7.04 5.98 7.04 5.98 3 8 C3 7.34 3 6.68 3 6 C2.34 6 1.68 6 1 6 C0.67 4.02 0.34 2.04 0 0 Z " fill="#F0F0F0" transform="translate(240,270)"/>
<path d="M0 0 C1.98 0.66 3.96 1.32 6 2 C6 2.99 6 3.98 6 5 C2.04 6.98 2.04 6.98 -2 9 C-2.66 7.35 -3.32 5.7 -4 4 C-3.01 3.67 -2.02 3.34 -1 3 C-0.67 2.01 -0.34 1.02 0 0 Z " fill="#EEEEEE" transform="translate(301,238)"/>
<path d="M0 0 C3.7910119 1.44950455 7.3874638 3.15172566 11 5 C9 7 9 7 6.8359375 7.1953125 C5.61777344 7.16050781 5.61777344 7.16050781 4.375 7.125 C3.55773437 7.10695312 2.74046875 7.08890625 1.8984375 7.0703125 C1.27195313 7.04710937 0.64546875 7.02390625 0 7 C-0.5625 5.0625 -0.5625 5.0625 -1 3 C-0.67 2.67 -0.34 2.34 0 2 C0 1.34 0 0.68 0 0 Z " fill="#EAEAEA" transform="translate(221,193)"/>
<path d="M0 0 C2.64 0 5.28 0 8 0 C8 0.99 8 1.98 8 3 C5.04335481 4.4783226 2.25770263 4.06032783 -1 4 C-0.67 2.68 -0.34 1.36 0 0 Z " fill="#EBEBEB" transform="translate(112,100)"/>
<path d="M0 0 C5.75 -0.125 5.75 -0.125 8 1 C8.40729228 3.32156597 8.74438677 5.6568787 9 8 C7.87411986 7.04270084 6.7493285 6.08412105 5.625 5.125 C4.99851562 4.59132813 4.37203125 4.05765625 3.7265625 3.5078125 C2.44163349 2.38567993 1.20628025 1.20628025 0 0 Z " fill="#EDEDED" transform="translate(422,117)"/>
<path d="M0 0 C1.98 0.99 3.96 1.98 6 3 C6 3.99 6 4.98 6 6 C2.25 7.125 2.25 7.125 0 6 C-0.6875 3.5 -0.6875 3.5 -1 1 C-0.67 0.67 -0.34 0.34 0 0 Z " fill="#ECECEC" transform="translate(234,200)"/>
<path d="M0 0 C0.33 0 0.66 0 1 0 C1.33 4.29 1.66 8.58 2 13 C1.01 13.33 0.02 13.66 -1 14 C-1.027193 12.41676312 -1.04648306 10.83338938 -1.0625 9.25 C-1.07410156 8.36828125 -1.08570313 7.4865625 -1.09765625 6.578125 C-1.00826198 4.2181162 -0.66912821 2.25501476 0 0 Z " fill="#CFCFCF" transform="translate(41,307)"/>
<path d="M0 0 C2.0625 1.625 2.0625 1.625 4 4 C3.75 7.25 3.75 7.25 3 10 C2.01 10 1.02 10 0 10 C0.20625 9.2575 0.4125 8.515 0.625 7.75 C1.04408751 4.67669159 0.61949011 3.57213134 -1 1 C-0.67 0.67 -0.34 0.34 0 0 Z " fill="#E2E2E2" transform="translate(57,359)"/>
<path d="M0 0 C1.65 0.33 3.3 0.66 5 1 C3.35 2.65 1.7 4.3 0 6 C-0.66 5.67 -1.32 5.34 -2 5 C-1.34 3.35 -0.68 1.7 0 0 Z " fill="#E2E2E2" transform="translate(62,114)"/>
<path d="M0 0 C-0.33 0.99 -0.66 1.98 -1 3 C-2.9375 3.8125 -2.9375 3.8125 -5 4 C-5.66 3.34 -6.32 2.68 -7 2 C-4 0 -4 0 0 0 Z " fill="#E8E8E8" transform="translate(260,267)"/>
</svg>
